<?xml version="1.0" standalone="no"?>
<!DOCTYPE svg PUBLIC "-//W3C//DTD SVG 20010904//EN"
 "http://www.w3.org/TR/2001/REC-SVG-20010904/DTD/svg10.dtd">
<svg version="1.0" xmlns="http://www.w3.org/2000/svg"
 width="984.000000pt" height="175.000000pt" viewBox="0 0 984.000000 175.000000"
 preserveAspectRatio="xMidYMid meet">

<g transform="translate(0.000000,175.000000) scale(0.100000,-0.100000)"
fill="#000000" stroke="none">
<path d="M3942 1687 l-52 -53 0 -66 0 -67 -77 -4 -78 -3 78 -2 c59 -2 77 -5
77 -16 0 -8 -12 -17 -27 -19 l-28 -4 28 -2 27 -1 0 -89 0 -89 46 -11 45 -12
-104 -63 c-243 -148 -515 -361 -758 -593 l-86 -83 -324 -3 c-234 -2 -201 -2
121 -3 245 0 394 2 331 5 l-115 6 135 122 c164 149 260 230 406 339 107 81
370 254 385 254 4 0 5 -8 2 -17 -3 -10 10 -1 29 20 l34 37 327 0 327 0 147
-123 c278 -232 467 -370 689 -503 85 -51 154 -96 154 -101 0 -4 -10 -11 -23
-15 -20 -5 -18 -6 12 -9 19 -2 -23 -6 -95 -9 -71 -3 192 -6 585 -6 393 0 673
2 621 3 l-94 4 59 35 c171 103 264 211 264 306 -1 90 -99 196 -252 271 -227
113 -656 218 -1138 279 -96 12 -101 14 -60 19 27 4 10 6 -45 4 -51 -2 -75 0
-55 4 23 4 -34 11 -167 21 -112 7 -203 16 -203 20 0 3 5 11 12 18 16 16 9 15
-42 -3 -23 -8 -44 -15 -46 -15 -2 0 -4 61 -4 135 l0 135 -508 0 -508 0 -52
-53z m1056 -137 l2 -175 -45 -45 -45 -44 0 174 0 174 43 46 42 45 -45 -42 -46
-43 -499 0 -499 0 44 45 44 45 501 -2 500 -3 3 -175z m-98 -95 l0 -175 -500 0
-500 0 0 175 0 175 500 0 500 0 0 -175z m173 -32 l38 -24 -17 26 -18 27 55 -6
c30 -3 142 -15 249 -27 979 -103 1578 -303 1616 -540 15 -93 -66 -201 -231
-308 l-93 -61 -455 0 -454 0 -33 47 c-31 43 -35 45 -40 25 -5 -20 -15 -16
-158 71 -231 139 -509 344 -750 554 l-73 63 98 0 97 0 53 52 c48 47 53 57 53
96 0 32 3 41 13 36 6 -4 29 -18 50 -31z"/>
<path d="M4260 1510 c0 -5 5 -10 11 -10 5 0 7 5 4 10 -3 6 -8 10 -11 10 -2 0
-4 -4 -4 -10z"/>
<path d="M4050 1460 c0 -57 20 -69 21 -12 1 36 1 37 11 10 12 -34 21 -35 36
-5 10 21 11 20 11 -10 1 -54 21 -37 21 17 0 55 -23 71 -34 25 -4 -14 -10 -25
-15 -25 -5 0 -12 11 -15 25 -4 14 -13 25 -21 25 -11 0 -15 -13 -15 -50z"/>
<path d="M4430 1460 l0 -50 38 1 c30 2 32 3 10 6 -26 4 -28 8 -28 49 0 24 -4
44 -10 44 -5 0 -10 -22 -10 -50z"/>
<path d="M4174 1479 c-5 -9 -2 -10 10 -6 10 4 23 4 29 0 7 -4 2 -9 -13 -13
-36 -9 -34 -44 3 -48 27 -3 28 -2 25 35 -2 30 -7 39 -25 41 -11 2 -25 -2 -29
-9z m46 -39 c0 -12 -28 -25 -36 -17 -9 9 6 27 22 27 8 0 14 -5 14 -10z"/>
<path d="M4260 1451 c0 -23 5 -41 10 -41 6 0 10 15 10 34 0 19 -4 38 -10 41
-6 4 -10 -10 -10 -34z"/>
<path d="M4300 1448 c0 -46 18 -51 22 -5 2 17 8 32 13 32 6 0 11 -15 13 -32 4
-41 22 -44 22 -4 0 33 -13 46 -47 46 -20 1 -23 -4 -23 -37z"/>
<path d="M4522 1481 c-8 -5 -12 -21 -10 -37 2 -23 9 -30 30 -32 22 -3 29 2 34
22 10 41 -21 68 -54 47z m38 -37 c0 -15 -6 -24 -15 -24 -21 0 -30 27 -15 45
16 19 30 10 30 -21z"/>
<path d="M4602 1481 c-8 -5 -12 -21 -10 -37 2 -23 9 -30 30 -32 22 -3 29 2 34
22 10 41 -21 68 -54 47z m38 -37 c0 -15 -6 -24 -15 -24 -21 0 -30 27 -15 45
16 19 30 10 30 -21z"/>
<path d="M4680 1433 c0 -29 5 -53 10 -53 6 0 10 6 10 14 0 8 10 16 23 18 14 2
23 11 25 26 5 31 -15 52 -44 50 -22 -2 -24 -7 -24 -55z m57 3 c-10 -25 -37
-19 -37 7 0 13 3 27 7 31 11 11 36 -21 30 -38z"/>
<path d="M5298 928 c-9 -27 7 -73 27 -76 18 -2 19 -2 3 8 -10 6 -18 20 -18 30
0 12 7 20 18 21 13 0 14 2 2 6 -8 3 -18 10 -21 15 -3 5 -8 4 -11 -4z"/>
<path d="M5598 928 c-9 -27 7 -73 27 -76 18 -2 19 -2 3 8 -10 6 -18 20 -18 30
0 12 7 20 18 21 13 0 14 2 2 6 -8 3 -18 10 -21 15 -3 5 -8 4 -11 -4z"/>
<path d="M6568 928 c-9 -27 7 -73 27 -76 18 -2 19 -2 3 8 -10 6 -18 20 -18 30
0 12 7 20 18 21 13 0 14 2 2 6 -8 3 -18 10 -21 15 -3 5 -8 4 -11 -4z"/>
<path d="M5351 883 c1 -38 1 -38 9 -9 5 16 15 33 22 37 9 6 6 9 -9 9 -20 0
-23 -5 -22 -37z"/>
<path d="M5403 885 c0 -22 2 -30 4 -17 2 12 2 30 0 40 -3 9 -5 -1 -4 -23z"/>
<path d="M5441 882 c1 -36 2 -36 8 -7 3 17 13 30 21 30 8 0 18 -13 21 -30 l7
-30 1 33 c1 43 31 45 31 2 0 -16 5 -30 10 -30 12 0 13 40 2 56 -4 6 -28 12
-54 12 l-48 1 1 -37z"/>
<path d="M5573 885 c0 -22 2 -30 4 -17 2 12 2 30 0 40 -3 9 -5 -1 -4 -23z"/>
<path d="M5654 906 c-12 -30 0 -51 31 -53 18 -1 22 1 10 4 -34 9 -41 23 -11
23 21 0 27 4 24 18 -4 22 -46 29 -54 8z m46 -6 c0 -5 -9 -10 -21 -10 -11 0
-17 5 -14 10 3 6 13 10 21 10 8 0 14 -4 14 -10z"/>
<path d="M5784 906 c-11 -28 1 -51 26 -53 25 -3 25 -3 3 7 -13 5 -23 16 -23
25 0 9 10 20 23 25 l22 9 -23 0 c-12 1 -25 -5 -28 -13z"/>
<path d="M5854 906 c-11 -29 0 -51 26 -51 21 0 25 5 25 30 0 24 -5 31 -23 33
-13 2 -24 -3 -28 -12z m43 -12 c8 -21 -13 -42 -28 -27 -13 13 -5 43 11 43 6 0
13 -7 17 -16z"/>
<path d="M5931 882 c1 -36 2 -36 8 -7 3 17 13 30 21 30 8 0 18 -13 21 -30 l7
-30 1 33 c1 43 31 45 31 2 0 -16 5 -30 10 -30 12 0 13 40 2 56 -4 6 -28 12
-54 12 l-48 1 1 -37z"/>
<path d="M6054 906 c-12 -30 0 -51 31 -53 18 -1 22 1 10 4 -34 9 -41 23 -11
23 21 0 27 4 24 18 -4 22 -46 29 -54 8z m46 -6 c0 -5 -9 -10 -21 -10 -11 0
-17 5 -14 10 3 6 13 10 21 10 8 0 14 -4 14 -10z"/>
<path d="M6131 883 c1 -36 2 -37 8 -8 8 40 38 46 44 8 4 -28 4 -28 3 2 -1 25
-6 31 -28 33 -26 3 -28 1 -27 -35z"/>
<path d="M6233 912 c16 -7 16 -9 3 -27 -22 -29 -20 -35 12 -34 26 1 26 1 4 8
l-24 6 21 19 c28 26 26 36 -6 35 -22 0 -24 -2 -10 -7z"/>
<path d="M6283 885 c0 -22 2 -30 4 -17 2 12 2 30 0 40 -3 9 -5 -1 -4 -23z"/>
<path d="M6361 882 c1 -36 2 -36 8 -7 3 17 13 30 21 30 8 0 18 -13 21 -30 l7
-30 1 33 c1 43 31 45 31 2 0 -16 5 -30 10 -30 12 0 13 40 2 56 -4 6 -28 12
-54 12 l-48 1 1 -37z"/>
<path d="M6494 906 c-11 -29 0 -51 26 -51 21 0 25 5 25 30 0 24 -5 31 -23 33
-13 2 -24 -3 -28 -12z m43 -12 c8 -21 -13 -42 -28 -27 -13 13 -5 43 11 43 6 0
13 -7 17 -16z"/>
<path d="M6624 906 c-11 -29 0 -51 26 -51 21 0 25 5 25 30 0 24 -5 31 -23 33
-13 2 -24 -3 -28 -12z m43 -12 c8 -21 -13 -42 -28 -27 -13 13 -5 43 11 43 6 0
13 -7 17 -16z"/>
<path d="M6720 910 l25 -8 -22 -7 c-13 -4 -23 -15 -23 -26 0 -15 7 -19 31 -19
28 0 30 2 27 33 -3 28 -7 32 -33 34 -29 2 -29 2 -5 -7z m20 -35 c0 -8 -7 -15
-15 -15 -26 0 -18 20 13 29 1 1 2 -6 2 -14z"/>
<path d="M6781 883 c1 -38 1 -38 9 -9 5 16 15 33 22 37 9 6 6 9 -9 9 -20 0
-23 -5 -22 -37z"/>
<path d="M6834 906 c-12 -30 0 -51 31 -53 18 -1 22 1 10 4 -34 9 -41 23 -11
23 21 0 27 4 24 18 -4 22 -46 29 -54 8z m46 -6 c0 -5 -9 -10 -21 -10 -11 0
-17 5 -14 10 3 6 13 10 21 10 8 0 14 -4 14 -10z"/>
<path d="M3543 1483 c31 -2 83 -2 115 0 31 2 5 3 -58 3 -63 0 -89 -1 -57 -3z"/>
<path d="M3333 1473 c26 -2 68 -2 95 0 26 2 4 3 -48 3 -52 0 -74 -1 -47 -3z"/>
<path d="M3158 1463 c23 -2 59 -2 80 0 20 2 1 4 -43 4 -44 0 -61 -2 -37 -4z"/>
<path d="M3003 1453 c20 -2 54 -2 75 0 20 2 3 4 -38 4 -41 0 -58 -2 -37 -4z"/>
<path d="M2715 1435 c-66 -7 -100 -12 -75 -13 25 0 108 6 185 13 86 7 115 12
75 12 -36 0 -119 -5 -185 -12z"/>
<path d="M3705 1443 c-16 -2 -118 -15 -227 -28 -725 -91 -1222 -231 -1404
-398 -59 -53 -104 -130 -104 -177 0 -103 103 -216 288 -315 52 -28 56 -39 17
-47 -11 -2 8 -7 42 -12 l63 -7 3 -202 2 -202 3 218 c1 128 -2 216 -7 213 -5
-3 -23 11 -41 32 -26 31 -30 33 -24 13 8 -30 -1 -27 -104 31 -141 81 -232 188
-232 274 0 48 47 130 103 179 199 175 720 312 1557 410 107 13 173 23 145 23
-27 -1 -63 -3 -80 -5z"/>
<path d="M2523 1413 c15 -2 37 -2 50 0 12 2 0 4 -28 4 -27 0 -38 -2 -22 -4z"/>
<path d="M5795 1400 c99 -10 198 -18 220 -18 53 1 -173 25 -300 31 -64 4 -35
-1 80 -13z"/>
<path d="M2423 1403 c15 -2 37 -2 50 0 12 2 0 4 -28 4 -27 0 -38 -2 -22 -4z"/>
<path d="M2138 1375 c-715 -93 -1172 -221 -1393 -388 -102 -77 -178 -193 -211
-319 -26 -99 -23 -93 -40 -72 -15 18 -15 18 -10 -9 3 -15 9 -38 12 -52 l6 -25
-213 -3 c-118 -1 -30 -2 196 -2 226 0 323 1 217 2 l-193 3 38 53 38 52 -32
-23 -33 -23 6 33 c12 62 52 170 86 225 156 259 624 422 1563 543 121 15 202
28 180 28 -22 0 -120 -10 -217 -23z"/>
<path d="M6345 1345 c990 -113 1568 -230 1855 -375 147 -75 287 -190 410 -340
l53 -65 -26 -5 c-25 -5 -24 -6 20 -25 l48 -20 -305 -5 c-168 -3 39 -5 460 -5
421 0 562 1 313 2 l-451 3 -20 58 c-19 52 -20 54 -21 24 l-1 -34 -47 59 c-155
195 -324 325 -528 406 -314 125 -917 238 -1762 331 -127 15 -244 26 -260 25
-15 -1 103 -16 262 -34z"/>
<path d="M1073 900 c0 -30 2 -43 4 -27 2 15 2 39 0 55 -2 15 -4 2 -4 -28z"/>
<path d="M1450 938 c0 -10 27 -10 34 0 2 4 -4 8 -15 8 -10 0 -19 -4 -19 -8z"/>
<path d="M2710 938 c0 -4 6 -8 14 -8 8 0 17 4 20 8 2 4 -4 8 -15 8 -10 0 -19
-4 -19 -8z"/>
<path d="M3030 936 c0 -8 -10 -16 -22 -18 -18 -2 -23 -10 -23 -33 0 -25 4 -30
28 -33 26 -3 27 -2 27 47 0 28 -2 51 -5 51 -3 0 -5 -6 -5 -14z m-3 -42 c8 -21
-13 -42 -28 -27 -13 13 -5 43 11 43 6 0 13 -7 17 -16z"/>
<path d="M4230 938 c0 -4 6 -8 14 -8 8 0 17 4 20 8 2 4 -4 8 -15 8 -10 0 -19
-4 -19 -8z"/>
<path d="M7025 933 c-12 -21 -8 -83 6 -83 8 0 14 49 10 74 -1 5 4 13 11 17 10
7 10 9 -2 9 -8 0 -20 -8 -25 -17z"/>
<path d="M7280 936 c0 -8 -10 -16 -22 -18 -18 -2 -23 -10 -23 -33 0 -25 4 -30
28 -33 26 -3 27 -2 27 47 0 28 -2 51 -5 51 -3 0 -5 -6 -5 -14z m-3 -42 c8 -21
-13 -42 -28 -27 -13 13 -5 43 11 43 6 0 13 -7 17 -16z"/>
<path d="M7311 903 c-1 -50 0 -53 24 -53 27 0 45 24 38 51 -3 12 -14 19 -28
19 -14 0 -25 7 -28 18 -3 9 -5 -7 -6 -35z m49 -18 c0 -15 -6 -25 -14 -25 -16
0 -25 19 -18 38 8 22 32 13 32 -13z"/>
<path d="M7542 900 c0 -32 2 -47 7 -37 6 17 8 17 20 3 7 -9 18 -16 24 -16 5 0
2 9 -8 20 -18 20 -18 21 1 35 10 8 14 15 7 15 -6 0 -15 -4 -18 -10 -11 -18
-24 -10 -28 18 -2 15 -4 2 -5 -28z"/>
<path d="M8813 900 c0 -30 2 -43 4 -27 2 15 2 39 0 55 -2 15 -4 2 -4 -28z"/>
<path d="M9190 938 c0 -4 6 -8 14 -8 8 0 17 4 20 8 2 4 -4 8 -15 8 -10 0 -19
-4 -19 -8z"/>
<path d="M9350 936 c0 -8 -10 -16 -22 -18 -18 -2 -23 -10 -23 -33 0 -25 4 -30
28 -33 26 -3 27 -2 27 47 0 28 -2 51 -5 51 -3 0 -5 -6 -5 -14z m-3 -42 c8 -21
-13 -42 -28 -27 -13 13 -5 43 11 43 6 0 13 -7 17 -16z"/>
<path d="M9573 900 c0 -30 2 -43 4 -27 2 15 2 39 0 55 -2 15 -4 2 -4 -28z"/>
<path d="M898 928 c-9 -27 7 -73 27 -76 18 -2 19 -2 3 8 -10 6 -18 20 -18 30
0 12 7 20 18 21 13 0 14 2 2 6 -8 3 -18 10 -21 15 -3 5 -8 4 -11 -4z"/>
<path d="M1688 928 c-9 -27 7 -73 27 -76 18 -2 19 -2 3 8 -10 6 -18 20 -18 30
0 12 7 20 18 21 13 0 14 2 2 6 -8 3 -18 10 -21 15 -3 5 -8 4 -11 -4z"/>
<path d="M2278 928 c-9 -27 7 -73 27 -76 18 -2 19 -2 3 8 -10 6 -18 20 -18 30
0 12 7 20 18 21 13 0 14 2 2 6 -8 3 -18 10 -21 15 -3 5 -8 4 -11 -4z"/>
<path d="M3718 928 c-9 -27 7 -73 27 -76 18 -2 19 -2 3 8 -10 6 -18 20 -18 30
0 12 7 20 18 21 13 0 14 2 2 6 -8 3 -18 10 -21 15 -3 5 -8 4 -11 -4z"/>
<path d="M8598 928 c-9 -27 7 -73 27 -76 18 -2 19 -2 3 8 -10 6 -18 20 -18 30
0 12 7 20 18 21 13 0 14 2 2 6 -8 3 -18 10 -21 15 -3 5 -8 4 -11 -4z"/>
<path d="M753 885 c0 -22 2 -30 4 -17 2 12 2 30 0 40 -3 9 -5 -1 -4 -23z"/>
<path d="M791 883 c1 -36 2 -37 8 -8 8 40 38 46 44 8 4 -28 4 -28 3 2 -1 25
-6 31 -28 33 -26 3 -28 1 -27 -35z"/>
<path d="M873 885 c0 -22 2 -30 4 -17 2 12 2 30 0 40 -3 9 -5 -1 -4 -23z"/>
<path d="M963 885 c0 -22 2 -30 4 -17 2 12 2 30 0 40 -3 9 -5 -1 -4 -23z"/>
<path d="M1010 910 l25 -8 -22 -7 c-13 -4 -23 -15 -23 -26 0 -15 7 -19 31 -19
28 0 30 2 27 33 -3 28 -7 32 -33 34 -29 2 -29 2 -5 -7z m20 -35 c0 -8 -7 -15
-15 -15 -26 0 -18 20 13 29 1 1 2 -6 2 -14z"/>
<path d="M1113 885 c0 -22 2 -30 4 -17 2 12 2 30 0 40 -3 9 -5 -1 -4 -23z"/>
<path d="M1153 912 c16 -7 16 -9 3 -27 -22 -29 -20 -35 12 -34 26 1 26 1 4 8
l-24 6 21 19 c28 26 26 36 -6 35 -22 0 -24 -2 -10 -7z"/>
<path d="M1214 906 c-12 -30 0 -51 31 -53 18 -1 22 1 10 4 -34 9 -41 23 -11
23 21 0 27 4 24 18 -4 22 -46 29 -54 8z m46 -6 c0 -5 -9 -10 -21 -10 -11 0
-17 5 -14 10 3 6 13 10 21 10 8 0 14 -4 14 -10z"/>
<path d="M1310 910 l25 -8 -22 -7 c-13 -4 -23 -15 -23 -26 0 -15 7 -19 31 -19
28 0 30 2 27 33 -3 28 -7 32 -33 34 -29 2 -29 2 -5 -7z m20 -35 c0 -8 -7 -15
-15 -15 -26 0 -18 20 13 29 1 1 2 -6 2 -14z"/>
<path d="M1383 912 c16 -7 16 -9 3 -27 -22 -29 -20 -35 12 -34 26 1 26 1 4 8
l-24 6 21 19 c28 26 26 36 -6 35 -22 0 -24 -2 -10 -7z"/>
<path d="M1460 910 l25 -8 -22 -7 c-13 -4 -23 -15 -23 -26 0 -15 7 -19 31 -19
28 0 30 2 27 33 -3 28 -7 32 -33 34 -29 2 -29 2 -5 -7z m20 -35 c0 -8 -7 -15
-15 -15 -26 0 -18 20 13 29 1 1 2 -6 2 -14z"/>
<path d="M1561 883 c1 -38 1 -38 9 -9 5 16 15 33 22 37 9 6 6 9 -9 9 -20 0
-23 -5 -22 -37z"/>
<path d="M1614 906 c-12 -30 0 -51 31 -53 18 -1 22 1 10 4 -34 9 -41 23 -11
23 21 0 27 4 24 18 -4 22 -46 29 -54 8z m46 -6 c0 -5 -9 -10 -21 -10 -11 0
-17 5 -14 10 3 6 13 10 21 10 8 0 14 -4 14 -10z"/>
<path d="M1754 906 c-12 -30 0 -51 31 -53 18 -1 22 1 10 4 -34 9 -41 23 -11
23 21 0 27 4 24 18 -4 22 -46 29 -54 8z m46 -6 c0 -5 -9 -10 -21 -10 -11 0
-17 5 -14 10 3 6 13 10 21 10 8 0 14 -4 14 -10z"/>
<path d="M1850 910 l25 -8 -22 -7 c-13 -4 -23 -15 -23 -26 0 -15 7 -19 31 -19
28 0 30 2 27 33 -3 28 -7 32 -33 34 -29 2 -29 2 -5 -7z m20 -35 c0 -8 -7 -15
-15 -15 -26 0 -18 20 13 29 1 1 2 -6 2 -14z"/>
<path d="M2054 906 c-11 -28 1 -51 26 -53 25 -3 25 -3 3 7 -13 5 -23 16 -23
25 0 9 10 20 23 25 l22 9 -23 0 c-12 1 -25 -5 -28 -13z"/>
<path d="M2140 910 l25 -8 -22 -7 c-13 -4 -23 -15 -23 -26 0 -15 7 -19 31 -19
28 0 30 2 27 33 -3 28 -7 32 -33 34 -29 2 -29 2 -5 -7z m20 -35 c0 -8 -7 -15
-15 -15 -26 0 -18 20 13 29 1 1 2 -6 2 -14z"/>
<path d="M2201 868 c1 -29 3 -45 6 -35 2 9 13 17 23 17 23 0 39 26 33 51 -4
13 -14 19 -34 19 -28 0 -29 -1 -28 -52z m49 17 c0 -15 -6 -25 -14 -25 -16 0
-25 19 -18 38 8 22 32 13 32 -13z"/>
<path d="M2333 890 c2 -30 6 -35 30 -38 25 -3 27 -1 26 35 -1 36 -2 37 -8 8
-3 -17 -13 -30 -21 -30 -8 0 -18 13 -22 30 -6 29 -6 29 -5 -5z"/>
<path d="M2421 883 c1 -38 1 -38 9 -9 5 16 15 33 22 37 9 6 6 9 -9 9 -20 0
-23 -5 -22 -37z"/>
<path d="M2474 906 c-12 -30 0 -51 31 -53 18 -1 22 1 10 4 -34 9 -41 23 -11
23 21 0 27 4 24 18 -4 22 -46 29 -54 8z m46 -6 c0 -5 -9 -10 -21 -10 -11 0
-17 5 -14 10 3 6 13 10 21 10 8 0 14 -4 14 -10z"/>
<path d="M2570 910 l25 -8 -22 -7 c-13 -4 -23 -15 -23 -26 0 -15 7 -19 31 -19
28 0 30 2 27 33 -3 28 -7 32 -33 34 -29 2 -29 2 -5 -7z m20 -35 c0 -8 -7 -15
-15 -15 -26 0 -18 20 13 29 1 1 2 -6 2 -14z"/>
<path d="M2643 912 c16 -7 16 -9 3 -27 -22 -29 -20 -35 12 -34 26 1 26 1 4 8
l-24 6 21 19 c28 26 26 36 -6 35 -22 0 -24 -2 -10 -7z"/>
<path d="M2720 910 l25 -8 -22 -7 c-13 -4 -23 -15 -23 -26 0 -15 7 -19 31 -19
28 0 30 2 27 33 -3 28 -7 32 -33 34 -29 2 -29 2 -5 -7z m20 -35 c0 -8 -7 -15
-15 -15 -26 0 -18 20 13 29 1 1 2 -6 2 -14z"/>
<path d="M2840 910 l25 -8 -22 -7 c-13 -4 -23 -15 -23 -26 0 -15 7 -19 31 -19
28 0 30 2 27 33 -3 28 -7 32 -33 34 -29 2 -29 2 -5 -7z m20 -35 c0 -8 -7 -15
-15 -15 -26 0 -18 20 13 29 1 1 2 -6 2 -14z"/>
<path d="M2903 890 c2 -30 6 -35 30 -38 25 -3 27 -1 26 35 -1 36 -2 37 -8 8
-3 -17 -13 -30 -21 -30 -8 0 -18 13 -22 30 -6 29 -6 29 -5 -5z"/>
<path d="M3063 885 c0 -22 2 -30 4 -17 2 12 2 30 0 40 -3 9 -5 -1 -4 -23z"/>
<path d="M3104 906 c-11 -29 0 -51 26 -51 21 0 25 5 25 30 0 24 -5 31 -23 33
-13 2 -24 -3 -28 -12z m43 -12 c8 -21 -13 -42 -28 -27 -13 13 -5 43 11 43 6 0
13 -7 17 -16z"/>
<path d="M3591 883 c1 -38 1 -38 9 -9 5 16 15 33 22 37 9 6 6 9 -9 9 -20 0
-23 -5 -22 -37z"/>
<path d="M3644 906 c-12 -30 0 -51 31 -53 18 -1 22 1 10 4 -34 9 -41 23 -11
23 21 0 27 4 24 18 -4 22 -46 29 -54 8z m46 -6 c0 -5 -9 -10 -21 -10 -11 0
-17 5 -14 10 3 6 13 10 21 10 8 0 14 -4 14 -10z"/>
<path d="M3773 890 c2 -30 6 -35 30 -38 25 -3 27 -1 26 35 -1 36 -2 37 -8 8
-3 -17 -13 -30 -21 -30 -8 0 -18 13 -22 30 -6 29 -6 29 -5 -5z"/>
<path d="M3861 883 c1 -38 1 -38 9 -9 5 16 15 33 22 37 9 6 6 9 -9 9 -20 0
-23 -5 -22 -37z"/>
<path d="M3911 883 c1 -36 2 -37 8 -8 8 40 38 46 44 8 4 -28 4 -28 3 2 -1 25
-6 31 -28 33 -26 3 -28 1 -27 -35z"/>
<path d="M3994 906 c-12 -30 0 -51 31 -53 18 -1 22 1 10 4 -34 9 -41 23 -11
23 21 0 27 4 24 18 -4 22 -46 29 -54 8z m46 -6 c0 -5 -9 -10 -21 -10 -11 0
-17 5 -14 10 3 6 13 10 21 10 8 0 14 -4 14 -10z"/>
<path d="M4090 910 l25 -8 -22 -7 c-13 -4 -23 -15 -23 -26 0 -15 7 -19 31 -19
28 0 30 2 27 33 -3 28 -7 32 -33 34 -29 2 -29 2 -5 -7z m20 -35 c0 -8 -7 -15
-15 -15 -26 0 -18 20 13 29 1 1 2 -6 2 -14z"/>
<path d="M4163 912 c16 -7 16 -9 3 -27 -22 -29 -20 -35 12 -34 26 1 26 1 4 8
l-24 6 21 19 c28 26 26 36 -6 35 -22 0 -24 -2 -10 -7z"/>
<path d="M4240 910 l25 -8 -22 -7 c-13 -4 -23 -15 -23 -26 0 -15 7 -19 31 -19
28 0 30 2 27 33 -3 28 -7 32 -33 34 -29 2 -29 2 -5 -7z m20 -35 c0 -8 -7 -15
-15 -15 -26 0 -18 20 13 29 1 1 2 -6 2 -14z"/>
<path d="M4344 906 c-11 -28 1 -51 26 -53 25 -3 25 -3 3 7 -13 5 -23 16 -23
25 0 9 10 20 23 25 l22 9 -23 0 c-12 1 -25 -5 -28 -13z"/>
<path d="M4414 906 c-11 -29 0 -51 26 -51 21 0 25 5 25 30 0 24 -5 31 -23 33
-13 2 -24 -3 -28 -12z m43 -12 c8 -21 -13 -42 -28 -27 -13 13 -5 43 11 43 6 0
13 -7 17 -16z"/>
<path d="M4491 882 c1 -36 2 -36 8 -7 3 17 13 30 21 30 8 0 18 -13 21 -30 l7
-30 1 33 c1 43 31 45 31 2 0 -16 5 -30 10 -30 12 0 13 40 2 56 -4 6 -28 12
-54 12 l-48 1 1 -37z"/>
<path d="M4624 906 c-12 -30 0 -51 31 -53 18 -1 22 1 10 4 -34 9 -41 23 -11
23 21 0 27 4 24 18 -4 22 -46 29 -54 8z m46 -6 c0 -5 -9 -10 -21 -10 -11 0
-17 5 -14 10 3 6 13 10 21 10 8 0 14 -4 14 -10z"/>
<path d="M4701 883 c1 -36 2 -37 8 -8 8 40 38 46 44 8 4 -28 4 -28 3 2 -1 25
-6 31 -28 33 -26 3 -28 1 -27 -35z"/>
<path d="M4793 912 c16 -7 16 -9 3 -27 -22 -29 -20 -35 12 -34 26 1 26 1 4 8
l-24 6 21 19 c28 26 26 36 -6 35 -22 0 -24 -2 -10 -7z"/>
<path d="M4853 885 c0 -22 2 -30 4 -17 2 12 2 30 0 40 -3 9 -5 -1 -4 -23z"/>
<path d="M7074 906 c-12 -30 0 -51 31 -53 18 -1 22 1 10 4 -34 9 -41 23 -11
23 21 0 27 4 24 18 -4 22 -46 29 -54 8z m46 -6 c0 -5 -9 -10 -21 -10 -11 0
-17 5 -14 10 3 6 13 10 21 10 8 0 14 -4 14 -10z"/>
<path d="M7154 906 c-12 -30 0 -51 31 -53 18 -1 22 1 10 4 -34 9 -41 23 -11
23 21 0 27 4 24 18 -4 22 -46 29 -54 8z m46 -6 c0 -5 -9 -10 -21 -10 -11 0
-17 5 -14 10 3 6 13 10 21 10 8 0 14 -4 14 -10z"/>
<path d="M7410 910 l25 -8 -22 -7 c-13 -4 -23 -15 -23 -26 0 -15 7 -19 31 -19
28 0 30 2 27 33 -3 28 -7 32 -33 34 -29 2 -29 2 -5 -7z m20 -35 c0 -8 -7 -15
-15 -15 -26 0 -18 20 13 29 1 1 2 -6 2 -14z"/>
<path d="M7474 906 c-11 -28 1 -51 26 -53 25 -3 25 -3 3 7 -13 5 -23 16 -23
25 0 9 10 20 23 25 l22 9 -23 0 c-12 1 -25 -5 -28 -13z"/>
<path d="M7660 904 c0 -9 9 -18 20 -21 27 -7 25 -23 -2 -24 -19 -1 -20 -2 -4
-6 10 -3 23 0 30 7 8 8 5 16 -13 30 l-25 18 25 5 c23 4 23 4 -3 6 -20 1 -28
-4 -28 -15z"/>
<path d="M7734 906 c-12 -30 0 -51 31 -53 18 -1 22 1 10 4 -34 9 -41 23 -11
23 21 0 27 4 24 18 -4 22 -46 29 -54 8z m46 -6 c0 -5 -9 -10 -21 -10 -11 0
-17 5 -14 10 3 6 13 10 21 10 8 0 14 -4 14 -10z"/>
<path d="M7811 883 c1 -36 2 -37 8 -8 8 40 38 46 44 8 4 -28 4 -28 3 2 -1 25
-6 31 -28 33 -26 3 -28 1 -27 -35z"/>
<path d="M7903 912 c16 -7 16 -9 3 -27 -22 -29 -20 -35 12 -34 26 1 26 1 4 8
l-24 6 21 19 c28 26 26 36 -6 35 -22 0 -24 -2 -10 -7z"/>
<path d="M7964 906 c-11 -29 0 -51 26 -51 21 0 25 5 25 30 0 24 -5 31 -23 33
-13 2 -24 -3 -28 -12z m43 -12 c8 -21 -13 -42 -28 -27 -13 13 -5 43 11 43 6 0
13 -7 17 -16z"/>
<path d="M8041 883 c1 -38 1 -38 9 -9 5 16 15 33 22 37 9 6 6 9 -9 9 -20 0
-23 -5 -22 -37z"/>
<path d="M8093 885 c0 -22 2 -30 4 -17 2 12 2 30 0 40 -3 9 -5 -1 -4 -23z"/>
<path d="M8470 910 l25 -8 -22 -7 c-13 -4 -23 -15 -23 -26 0 -15 7 -19 31 -19
28 0 30 2 27 33 -3 28 -7 32 -33 34 -29 2 -29 2 -5 -7z m20 -35 c0 -8 -7 -15
-15 -15 -26 0 -18 20 13 29 1 1 2 -6 2 -14z"/>
<path d="M8534 906 c-11 -28 1 -51 26 -53 25 -3 25 -3 3 7 -13 5 -23 16 -23
25 0 9 10 20 23 25 l22 9 -23 0 c-12 1 -25 -5 -28 -13z"/>
<path d="M8653 890 c2 -30 6 -35 30 -38 25 -3 27 -1 26 35 -1 36 -2 37 -8 8
-3 -17 -13 -30 -21 -30 -8 0 -18 13 -22 30 -6 29 -6 29 -5 -5z"/>
<path d="M8750 910 l25 -8 -22 -7 c-13 -4 -23 -15 -23 -26 0 -15 7 -19 31 -19
28 0 30 2 27 33 -3 28 -7 32 -33 34 -29 2 -29 2 -5 -7z m20 -35 c0 -8 -7 -15
-15 -15 -26 0 -18 20 13 29 1 1 2 -6 2 -14z"/>
<path d="M8853 885 c0 -22 2 -30 4 -17 2 12 2 30 0 40 -3 9 -5 -1 -4 -23z"/>
<path d="M8903 912 c16 -7 16 -9 3 -27 -22 -29 -20 -35 12 -34 26 1 26 1 4 8
l-24 6 21 19 c28 26 26 36 -6 35 -22 0 -24 -2 -10 -7z"/>
<path d="M8954 906 c-12 -30 0 -51 31 -53 18 -1 22 1 10 4 -34 9 -41 23 -11
23 21 0 27 4 24 18 -4 22 -46 29 -54 8z m46 -6 c0 -5 -9 -10 -21 -10 -11 0
-17 5 -14 10 3 6 13 10 21 10 8 0 14 -4 14 -10z"/>
<path d="M9050 910 l25 -8 -22 -7 c-13 -4 -23 -15 -23 -26 0 -15 7 -19 31 -19
28 0 30 2 27 33 -3 28 -7 32 -33 34 -29 2 -29 2 -5 -7z m20 -35 c0 -8 -7 -15
-15 -15 -26 0 -18 20 13 29 1 1 2 -6 2 -14z"/>
<path d="M9123 912 c16 -7 16 -9 3 -27 -22 -29 -20 -35 12 -34 26 1 26 1 4 8
l-24 6 21 19 c28 26 26 36 -6 35 -22 0 -24 -2 -10 -7z"/>
<path d="M9200 910 l25 -8 -22 -7 c-13 -4 -23 -15 -23 -26 0 -15 7 -19 31 -19
28 0 30 2 27 33 -3 28 -7 32 -33 34 -29 2 -29 2 -5 -7z m20 -35 c0 -8 -7 -15
-15 -15 -26 0 -18 20 13 29 1 1 2 -6 2 -14z"/>
<path d="M9393 885 c0 -22 2 -30 4 -17 2 12 2 30 0 40 -3 9 -5 -1 -4 -23z"/>
<path d="M9420 904 c0 -9 9 -18 20 -21 27 -7 25 -23 -2 -24 -19 -1 -20 -2 -4
-6 10 -3 23 0 30 7 8 8 5 16 -13 30 l-25 18 25 5 c23 4 23 4 -3 6 -20 1 -28
-4 -28 -15z"/>
<path d="M9491 868 c1 -29 3 -45 6 -35 2 9 13 17 23 17 23 0 39 26 33 51 -4
13 -14 19 -34 19 -28 0 -29 -1 -28 -52z m49 17 c0 -15 -6 -25 -14 -25 -16 0
-25 19 -18 38 8 22 32 13 32 -13z"/>
<path d="M9630 910 l25 -8 -22 -7 c-13 -4 -23 -15 -23 -26 0 -15 7 -19 31 -19
28 0 30 2 27 33 -3 28 -7 32 -33 34 -29 2 -29 2 -5 -7z m20 -35 c0 -8 -7 -15
-15 -15 -26 0 -18 20 13 29 1 1 2 -6 2 -14z"/>
<path d="M9691 913 c-1 -7 4 -23 10 -37 9 -20 9 -29 -1 -41 -9 -11 -9 -15 -1
-15 13 0 55 90 46 98 -3 4 -8 -4 -12 -16 -7 -28 -17 -28 -31 1 -6 12 -11 17
-11 10z"/>
<path d="M74 275 c0 -121 2 -169 3 -107 2 62 2 161 0 220 -1 59 -3 8 -3 -113z"/>
<path d="M904 275 c0 -121 2 -169 3 -107 2 62 2 161 0 220 -1 59 -3 8 -3 -113z"/>
<path d="M3274 275 c0 -121 2 -169 3 -107 2 62 2 161 0 220 -1 59 -3 8 -3
-113z"/>
<path d="M5434 280 c0 -118 2 -167 3 -108 2 60 2 156 0 215 -1 60 -3 11 -3
-107z"/>
<path d="M6884 280 c0 -118 2 -167 3 -108 2 60 2 156 0 215 -1 60 -3 11 -3
-107z"/>
<path d="M8094 275 c0 -121 2 -169 3 -107 2 62 2 161 0 220 -1 59 -3 8 -3
-113z"/>
<path d="M9634 280 c0 -118 2 -167 3 -108 2 60 2 156 0 215 -1 60 -3 11 -3
-107z"/>
<path d="M693 445 c-7 -8 -13 -18 -13 -24 0 -5 6 -12 13 -14 10 -4 10 -6 0 -6
-17 -1 -16 -19 1 -37 10 -10 38 -14 90 -14 l76 0 0 55 0 55 -77 0 c-55 -1 -82
-5 -90 -15z m157 -40 l0 -45 -72 1 c-40 0 -67 3 -60 6 6 2 12 11 12 19 0 8 -6
14 -12 15 -10 0 -10 2 0 6 6 2 12 11 12 18 0 7 -6 16 -12 18 -7 3 20 6 60 6
l72 1 0 -45z m-133 19 c-3 -3 -12 -4 -19 -1 -8 3 -5 6 6 6 11 1 17 -2 13 -5z
m0 -40 c-3 -3 -12 -4 -19 -1 -8 3 -5 6 6 6 11 1 17 -2 13 -5z"/>
<path d="M3063 445 c-7 -8 -13 -18 -13 -24 0 -5 6 -12 13 -14 10 -4 10 -6 0
-6 -17 -1 -16 -19 1 -37 10 -10 38 -14 90 -14 l76 0 0 55 0 55 -77 0 c-55 -1
-82 -5 -90 -15z m157 -40 l0 -45 -72 1 c-40 0 -67 3 -60 6 6 2 12 11 12 19 0
8 -6 14 -12 15 -10 0 -10 2 0 6 6 2 12 11 12 18 0 7 -6 16 -12 18 -7 3 20 6
60 6 l72 1 0 -45z m-133 19 c-3 -3 -12 -4 -19 -1 -8 3 -5 6 6 6 11 1 17 -2 13
-5z m0 -40 c-3 -3 -12 -4 -19 -1 -8 3 -5 6 6 6 11 1 17 -2 13 -5z"/>
<path d="M6673 445 c-7 -8 -13 -18 -13 -24 0 -5 6 -12 13 -14 10 -4 10 -6 0
-6 -17 -1 -16 -19 1 -37 10 -10 38 -14 90 -14 l76 0 0 55 0 55 -77 0 c-55 -1
-82 -5 -90 -15z m157 -40 l0 -45 -72 1 c-40 0 -67 3 -60 6 6 2 12 11 12 19 0
8 -6 14 -12 15 -10 0 -10 2 0 6 6 2 12 11 12 18 0 7 -6 16 -12 18 -7 3 20 6
60 6 l72 1 0 -45z m-133 19 c-3 -3 -12 -4 -19 -1 -8 3 -5 6 6 6 11 1 17 -2 13
-5z m0 -40 c-3 -3 -12 -4 -19 -1 -8 3 -5 6 6 6 11 1 17 -2 13 -5z"/>
<path d="M9423 445 c-7 -8 -13 -18 -13 -24 0 -5 6 -12 13 -14 10 -4 10 -6 0
-6 -17 -1 -16 -19 1 -37 10 -10 38 -14 90 -14 l76 0 0 55 0 55 -77 0 c-55 -1
-82 -5 -90 -15z m157 -40 l0 -45 -72 1 c-40 0 -67 3 -60 6 6 2 12 11 12 19 0
8 -6 14 -12 15 -10 0 -10 2 0 6 6 2 12 11 12 18 0 7 -6 16 -12 18 -7 3 20 6
60 6 l72 1 0 -45z m-133 19 c-3 -3 -12 -4 -19 -1 -8 3 -5 6 6 6 11 1 17 -2 13
-5z m0 -40 c-3 -3 -12 -4 -19 -1 -8 3 -5 6 6 6 11 1 17 -2 13 -5z"/>
<path d="M2950 237 c0 -59 19 -81 21 -24 2 44 -1 60 -12 72 -5 5 -9 -13 -9
-48z"/>
<path d="M5870 280 c0 -5 5 -10 11 -10 5 0 7 5 4 10 -3 6 -8 10 -11 10 -2 0
-4 -4 -4 -10z"/>
<path d="M6600 236 c0 -31 5 -56 10 -56 6 0 10 22 10 49 0 28 -4 53 -10 56 -6
4 -10 -15 -10 -49z"/>
<path d="M8610 280 c0 -5 5 -10 11 -10 5 0 7 5 4 10 -3 6 -8 10 -11 10 -2 0
-4 -4 -4 -10z"/>
<path d="M8990 280 c0 -5 5 -10 11 -10 5 0 7 5 4 10 -3 6 -8 10 -11 10 -2 0
-4 -4 -4 -10z"/>
<path d="M9190 236 c0 -31 5 -56 10 -56 6 0 10 22 10 49 0 28 -4 53 -10 56 -6
4 -10 -15 -10 -49z"/>
<path d="M5822 233 c2 -39 7 -48 23 -50 11 -2 14 0 8 3 -16 7 -17 64 -2 64 6
0 4 7 -5 15 -23 24 -27 18 -24 -32z"/>
<path d="M6412 233 c2 -39 7 -48 23 -50 11 -2 14 0 8 3 -16 7 -17 64 -2 64 6
0 4 7 -5 15 -23 24 -27 18 -24 -32z"/>
<path d="M8562 233 c2 -39 7 -48 23 -50 11 -2 14 0 8 3 -16 7 -17 64 -2 64 6
0 4 7 -5 15 -23 24 -27 18 -24 -32z"/>
<path d="M8950 267 c0 -8 -10 -13 -22 -13 -20 1 -23 -4 -23 -34 0 -32 3 -35
33 -38 l32 -3 0 50 c0 28 -4 51 -10 51 -5 0 -10 -6 -10 -13z m-5 -47 c0 -13
-6 -25 -12 -27 -16 -6 -27 21 -19 43 9 23 31 11 31 -16z"/>
<path d="M240 246 c-6 -8 -10 -25 -8 -38 2 -18 10 -23 33 -25 21 -1 23 0 7 4
-13 2 -26 11 -29 19 -7 19 16 46 34 40 8 -3 11 -1 8 4 -9 14 -31 12 -45 -4z"/>
<path d="M322 251 c-8 -5 -12 -21 -10 -37 2 -23 9 -30 30 -32 22 -3 29 2 34
22 10 41 -21 68 -54 47z m38 -37 c0 -15 -6 -24 -15 -24 -21 0 -30 27 -15 45
16 19 30 10 30 -21z"/>
<path d="M390 218 c0 -46 18 -51 22 -5 2 17 8 32 13 32 6 0 11 -15 13 -32 2
-18 7 -33 12 -33 5 0 10 15 12 33 2 17 8 32 13 32 6 0 11 -15 13 -32 4 -37 22
-45 22 -10 0 40 -16 52 -70 52 l-50 0 0 -37z"/>
<path d="M530 218 c0 -46 18 -51 22 -5 2 17 8 32 13 32 6 0 11 -15 13 -32 2
-18 7 -33 12 -33 5 0 10 15 12 33 2 17 8 32 13 32 6 0 11 -15 13 -32 4 -37 22
-45 22 -10 0 40 -16 52 -70 52 l-50 0 0 -37z"/>
<path d="M2547 253 c-13 -13 -7 -32 13 -38 27 -8 25 -22 -2 -28 -16 -4 -14 -5
6 -4 38 2 45 23 12 38 -26 12 -26 35 0 25 8 -3 14 -1 14 4 0 11 -33 14 -43 3z"/>
<path d="M2610 203 c0 -29 5 -53 10 -53 6 0 10 6 10 14 0 8 10 16 23 18 14 2
23 11 25 26 5 31 -15 52 -44 50 -22 -2 -24 -7 -24 -55z m57 3 c-10 -25 -37
-19 -37 7 0 13 3 27 7 31 11 11 36 -21 30 -38z"/>
<path d="M2710 246 c-6 -8 -10 -25 -8 -38 2 -18 10 -23 33 -25 18 -1 22 1 10
4 -34 9 -41 23 -13 23 32 0 44 16 28 35 -16 19 -34 19 -50 1z m35 -6 c3 -5 -1
-10 -10 -10 -9 0 -13 5 -10 10 3 6 8 10 10 10 2 0 7 -4 10 -10z"/>
<path d="M2800 246 c-6 -8 -10 -25 -8 -38 2 -18 10 -23 33 -25 18 -1 22 1 10
4 -34 9 -41 23 -13 23 32 0 44 16 28 35 -16 19 -34 19 -50 1z m35 -6 c3 -5 -1
-10 -10 -10 -9 0 -13 5 -10 10 3 6 8 10 10 10 2 0 7 -4 10 -10z"/>
<path d="M2880 246 c-6 -8 -10 -25 -8 -38 2 -18 10 -23 33 -25 21 -1 23 0 7 4
-13 2 -26 11 -29 19 -7 19 16 46 34 40 8 -3 11 -1 8 4 -9 14 -31 12 -45 -4z"/>
<path d="M2988 248 c7 -7 12 -25 12 -40 0 -15 5 -28 10 -28 6 0 10 13 10 28 0
28 -16 52 -34 52 -6 0 -5 -5 2 -12z"/>
<path d="M5600 218 c0 -46 18 -51 22 -5 2 17 8 32 13 32 6 0 11 -15 13 -32 2
-18 7 -33 12 -33 5 0 10 15 12 33 2 17 8 32 13 32 6 0 11 -15 13 -32 4 -37 22
-45 22 -10 0 40 -16 52 -70 52 l-50 0 0 -37z"/>
<path d="M5742 251 c-8 -5 -12 -21 -10 -37 2 -23 9 -30 30 -32 22 -3 29 2 34
22 10 41 -21 68 -54 47z m38 -37 c0 -15 -6 -24 -15 -24 -21 0 -30 27 -15 45
16 19 30 10 30 -21z"/>
<path d="M5870 221 c0 -23 5 -41 10 -41 6 0 10 15 10 34 0 19 -4 38 -10 41 -6
4 -10 -10 -10 -34z"/>
<path d="M5922 251 c-8 -5 -12 -21 -10 -37 2 -23 9 -30 30 -32 22 -3 29 2 34
22 10 41 -21 68 -54 47z m38 -37 c0 -15 -6 -24 -15 -24 -21 0 -30 27 -15 45
16 19 30 10 30 -21z"/>
<path d="M6000 218 c0 -46 18 -51 22 -5 2 17 8 32 13 32 6 0 11 -15 13 -32 4
-41 22 -44 22 -4 0 33 -13 46 -47 46 -20 1 -23 -4 -23 -37z"/>
<path d="M6170 246 c-6 -8 -10 -25 -8 -38 2 -18 10 -23 33 -25 21 -1 23 0 7 4
-13 2 -26 11 -29 19 -7 19 16 46 34 40 8 -3 11 -1 8 4 -9 14 -31 12 -45 -4z"/>
<path d="M6242 251 c-8 -5 -12 -21 -10 -37 2 -23 9 -30 30 -32 22 -3 29 2 34
22 10 41 -21 68 -54 47z m38 -37 c0 -15 -6 -24 -15 -24 -21 0 -30 27 -15 45
16 19 30 10 30 -21z"/>
<path d="M6320 218 c0 -46 18 -51 22 -5 2 17 8 32 13 32 6 0 11 -15 13 -32 4
-41 22 -44 22 -4 0 33 -13 46 -47 46 -20 1 -23 -4 -23 -37z"/>
<path d="M6460 218 c0 -21 5 -38 10 -38 6 0 10 13 10 30 0 17 7 33 17 39 14 7
12 9 -10 8 -24 -2 -27 -6 -27 -39z"/>
<path d="M6532 251 c-8 -5 -12 -21 -10 -37 2 -23 9 -30 30 -32 22 -3 29 2 34
22 10 41 -21 68 -54 47z m38 -37 c0 -15 -6 -24 -15 -24 -21 0 -30 27 -15 45
16 19 30 10 30 -21z"/>
<path d="M8260 246 c-6 -8 -10 -25 -8 -38 2 -18 10 -23 33 -25 18 -1 22 1 10
4 -34 9 -41 23 -13 23 32 0 44 16 28 35 -16 19 -34 19 -50 1z m35 -6 c3 -5 -1
-10 -10 -10 -9 0 -13 5 -10 10 3 6 8 10 10 10 2 0 7 -4 10 -10z"/>
<path d="M8340 218 c0 -46 18 -51 22 -5 2 17 8 32 13 32 6 0 11 -15 13 -32 2
-18 7 -33 12 -33 5 0 10 15 12 33 2 17 8 32 13 32 6 0 11 -15 13 -32 4 -37 22
-45 22 -10 0 40 -16 52 -70 52 l-50 0 0 -37z"/>
<path d="M8482 251 c-8 -5 -12 -21 -10 -37 2 -23 9 -30 30 -32 22 -3 29 2 34
22 10 41 -21 68 -54 47z m38 -37 c0 -15 -6 -24 -15 -24 -21 0 -30 27 -15 45
16 19 30 10 30 -21z"/>
<path d="M8610 221 c0 -23 5 -41 10 -41 6 0 10 15 10 34 0 19 -4 38 -10 41 -6
4 -10 -10 -10 -34z"/>
<path d="M8662 251 c-8 -5 -12 -21 -10 -37 2 -23 9 -30 30 -32 22 -3 29 2 34
22 10 41 -21 68 -54 47z m38 -37 c0 -15 -6 -24 -15 -24 -21 0 -30 27 -15 45
16 19 30 10 30 -21z"/>
<path d="M8740 218 c0 -46 18 -51 22 -5 2 17 8 32 13 32 6 0 11 -15 13 -32 4
-41 22 -44 22 -4 0 33 -13 46 -47 46 -20 1 -23 -4 -23 -37z"/>
<path d="M8990 221 c0 -23 5 -41 10 -41 6 0 10 15 10 34 0 19 -4 38 -10 41 -6
4 -10 -10 -10 -34z"/>
<path d="M9027 253 c-13 -13 -7 -32 13 -38 27 -8 25 -22 -2 -28 -16 -4 -14 -5
6 -4 38 2 45 23 12 38 -26 12 -26 35 0 25 8 -3 14 -1 14 4 0 11 -33 14 -43 3z"/>
<path d="M9100 203 c0 -29 5 -53 10 -53 6 0 10 6 10 14 0 8 10 16 23 18 14 2
23 11 25 26 5 31 -15 52 -44 50 -22 -2 -24 -7 -24 -55z m57 3 c-10 -25 -37
-19 -37 7 0 13 3 27 7 31 11 11 36 -21 30 -38z"/>
<path d="M9224 249 c-5 -9 -2 -10 10 -6 10 4 23 4 29 0 7 -4 2 -9 -13 -13 -36
-9 -34 -44 3 -48 27 -3 28 -2 25 35 -2 30 -7 39 -25 41 -11 2 -25 -2 -29 -9z
m46 -39 c0 -12 -28 -25 -36 -17 -9 9 6 27 22 27 8 0 14 -5 14 -10z"/>
<path d="M9311 256 c-1 -5 4 -26 11 -48 10 -33 9 -41 -3 -49 -8 -5 -9 -9 -3
-9 16 0 28 18 48 70 13 37 14 42 1 26 -8 -11 -15 -23 -15 -28 0 -18 -17 -6
-27 20 -6 15 -11 23 -12 18z"/>
<path d="M6098 153 c12 -2 30 -2 40 0 9 3 -1 5 -23 4 -22 0 -30 -2 -17 -4z"/>
<path d="M8838 153 c12 -2 30 -2 40 0 9 3 -1 5 -23 4 -22 0 -30 -2 -17 -4z"/>
<path d="M288 43 c111 -2 293 -2 405 0 111 1 20 2 -203 2 -223 0 -314 -1 -202
-2z"/>
<path d="M2613 43 c119 -2 315 -2 435 0 119 1 21 2 -218 2 -239 0 -337 -1
-217 -2z"/>
<path d="M5808 43 c193 -2 511 -2 705 0 193 1 35 2 -353 2 -388 0 -546 -1
-352 -2z"/>
<path d="M8483 43 c207 -2 547 -2 755 0 207 1 37 2 -378 2 -415 0 -585 -1
-377 -2z"/>
</g>
</svg>
