<?xml version="1.0" standalone="no"?>
<!DOCTYPE svg PUBLIC "-//W3C//DTD SVG 20010904//EN"
 "http://www.w3.org/TR/2001/REC-SVG-20010904/DTD/svg10.dtd">
<svg version="1.0" xmlns="http://www.w3.org/2000/svg"
 width="577.000000pt" height="272.000000pt" viewBox="0 0 577.000000 272.000000"
 preserveAspectRatio="xMidYMid meet">

<g transform="translate(0.000000,272.000000) scale(0.100000,-0.100000)"
fill="#000000" stroke="none">
<path d="M1223 2643 c126 -2 328 -2 450 0 122 1 20 2 -228 2 -247 0 -347 -1
-222 -2z"/>
<path d="M2513 2643 c136 -2 358 -2 495 0 136 1 24 2 -248 2 -272 0 -384 -1
-247 -2z"/>
<path d="M4138 2643 c288 -2 756 -2 1040 0 284 1 49 2 -523 2 -572 0 -805 -1
-517 -2z"/>
<path d="M994 2415 c0 -121 2 -169 3 -107 2 62 2 161 0 220 -1 59 -3 8 -3
-113z"/>
<path d="M1904 2415 c0 -121 2 -169 3 -107 2 62 2 161 0 220 -1 59 -3 8 -3
-113z"/>
<path d="M2264 2415 c0 -121 2 -169 3 -107 2 62 2 161 0 220 -1 59 -3 8 -3
-113z"/>
<path d="M3264 2420 c0 -118 2 -167 3 -107 2 59 2 155 0 215 -1 59 -3 10 -3
-108z"/>
<path d="M3614 2415 c0 -121 2 -169 3 -107 2 62 2 161 0 220 -1 59 -3 8 -3
-113z"/>
<path d="M5704 2415 c0 -121 2 -169 3 -107 2 62 2 161 0 220 -1 59 -3 8 -3
-113z"/>
<path d="M1693 2585 c-7 -8 -13 -18 -13 -24 0 -5 6 -12 13 -14 10 -4 10 -6 0
-6 -17 -1 -16 -19 1 -37 10 -10 38 -14 90 -14 l76 0 0 55 0 55 -77 0 c-55 -1
-82 -5 -90 -15z m157 -40 l0 -45 -72 1 c-40 0 -67 3 -60 6 6 2 12 11 12 19 0
8 -6 14 -12 15 -10 0 -10 2 0 6 6 2 12 11 12 18 0 7 -6 16 -12 18 -7 3 20 6
60 6 l72 1 0 -45z m-133 19 c-3 -3 -12 -4 -19 -1 -8 3 -5 6 6 6 11 1 17 -2 13
-5z m0 -40 c-3 -3 -12 -4 -19 -1 -8 3 -5 6 6 6 11 1 17 -2 13 -5z"/>
<path d="M3053 2585 c-7 -8 -13 -18 -13 -24 0 -5 6 -12 13 -14 10 -4 10 -6 0
-6 -17 -1 -16 -19 1 -37 10 -10 38 -14 90 -14 l76 0 0 55 0 55 -77 0 c-55 -1
-82 -5 -90 -15z m157 -40 l0 -45 -72 1 c-40 0 -67 3 -60 6 6 2 12 11 12 19 0
8 -6 14 -12 15 -10 0 -10 2 0 6 6 2 12 11 12 18 0 7 -6 16 -12 18 -7 3 20 6
60 6 l72 1 0 -45z m-133 19 c-3 -3 -12 -4 -19 -1 -8 3 -5 6 6 6 11 1 17 -2 13
-5z m0 -40 c-3 -3 -12 -4 -19 -1 -8 3 -5 6 6 6 11 1 17 -2 13 -5z"/>
<path d="M5493 2585 c-7 -8 -13 -18 -13 -24 0 -5 6 -12 13 -14 10 -4 10 -6 0
-6 -17 -1 -16 -19 1 -37 10 -10 38 -14 90 -14 l76 0 0 55 0 55 -77 0 c-55 -1
-82 -5 -90 -15z m157 -40 l0 -45 -72 1 c-40 0 -67 3 -60 6 6 2 12 11 12 19 0
8 -6 14 -12 15 -10 0 -10 2 0 6 6 2 12 11 12 18 0 7 -6 16 -12 18 -7 3 20 6
60 6 l72 1 0 -45z m-133 19 c-3 -3 -12 -4 -19 -1 -8 3 -5 6 6 6 11 1 17 -2 13
-5z m0 -40 c-3 -3 -12 -4 -19 -1 -8 3 -5 6 6 6 11 1 17 -2 13 -5z"/>
<path d="M1260 2420 c0 -5 5 -10 11 -10 5 0 7 5 4 10 -3 6 -8 10 -11 10 -2 0
-4 -4 -4 -10z"/>
<path d="M1460 2376 c0 -31 5 -56 10 -56 6 0 10 22 10 49 0 28 -4 53 -10 56
-6 4 -10 -15 -10 -49z"/>
<path d="M2540 2420 c0 -5 5 -10 11 -10 5 0 7 5 4 10 -3 6 -8 10 -11 10 -2 0
-4 -4 -4 -10z"/>
<path d="M2809 2415 c-9 -10 -13 -28 -11 -55 5 -49 22 -53 22 -6 0 19 6 37 13
39 9 4 8 6 -2 6 -11 1 -11 4 -1 16 16 19 -1 20 -21 0z"/>
<path d="M4790 2420 c0 -5 5 -10 11 -10 5 0 7 5 4 10 -3 6 -8 10 -11 10 -2 0
-4 -4 -4 -10z"/>
<path d="M5200 2420 c0 -5 5 -10 11 -10 5 0 7 5 4 10 -3 6 -8 10 -11 10 -2 0
-4 -4 -4 -10z"/>
<path d="M1150 2370 c0 -47 2 -50 26 -50 41 0 64 18 64 48 0 37 -17 52 -57 52
-33 0 -33 0 -33 -50z m68 6 c4 -28 -10 -46 -35 -46 -8 0 -13 15 -13 41 0 36 2
40 23 37 16 -2 23 -11 25 -32z"/>
<path d="M2420 2370 c0 -57 20 -69 21 -12 1 36 1 37 11 10 12 -34 21 -35 36
-5 10 21 11 20 11 -10 1 -54 21 -37 21 17 0 55 -23 71 -34 25 -4 -14 -10 -25
-15 -25 -5 0 -12 11 -15 25 -4 14 -13 25 -21 25 -11 0 -15 -13 -15 -50z"/>
<path d="M3770 2370 c0 -57 20 -69 21 -12 1 36 1 37 11 10 12 -34 21 -35 36
-5 10 21 11 20 11 -10 1 -54 21 -37 21 17 0 55 -23 71 -34 25 -4 -14 -10 -25
-15 -25 -5 0 -12 11 -15 25 -4 14 -13 25 -21 25 -11 0 -15 -13 -15 -50z"/>
<path d="M3982 2373 c2 -39 7 -48 23 -50 11 -2 14 0 8 3 -16 7 -17 64 -2 64 6
0 4 7 -5 15 -23 24 -27 18 -24 -32z"/>
<path d="M4550 2371 c0 -28 5 -51 10 -51 6 0 10 9 10 20 0 27 24 25 44 -2 15
-20 16 -20 10 -3 -4 11 -7 34 -8 50 -1 26 -5 30 -33 33 l-33 3 0 -50z m50 24
c0 -8 -7 -15 -15 -15 -8 0 -15 7 -15 15 0 8 7 15 15 15 8 0 15 -7 15 -15z"/>
<path d="M4742 2373 c2 -39 7 -48 23 -50 11 -2 14 0 8 3 -16 7 -17 64 -2 64 6
0 4 7 -5 15 -23 24 -27 18 -24 -32z"/>
<path d="M5040 2370 c0 -47 2 -50 26 -50 41 0 64 18 64 48 0 37 -17 52 -57 52
-33 0 -33 0 -33 -50z m68 6 c4 -28 -10 -46 -35 -46 -8 0 -13 15 -13 41 0 36 2
40 23 37 16 -2 23 -11 25 -32z"/>
<path d="M4430 2391 c0 -12 -8 -21 -22 -24 l-23 -4 23 -2 c15 -1 22 -7 22 -21
0 -11 5 -20 10 -20 6 0 10 9 10 19 0 11 8 22 18 24 16 4 16 5 0 6 -10 0 -18 7
-18 15 0 8 -4 18 -10 21 -5 3 -10 -3 -10 -14z"/>
<path d="M4910 2391 c0 -12 -8 -21 -22 -24 l-23 -4 23 -2 c15 -1 22 -7 22 -21
0 -11 5 -20 10 -20 6 0 10 9 10 19 0 11 8 22 18 24 16 4 16 5 0 6 -10 0 -18 7
-18 15 0 8 -4 18 -10 21 -5 3 -10 -3 -10 -14z"/>
<path d="M1260 2361 c0 -23 5 -41 10 -41 6 0 10 15 10 34 0 19 -4 38 -10 41
-6 4 -10 -10 -10 -34z"/>
<path d="M1307 2393 c-13 -13 -7 -32 13 -38 27 -8 25 -22 -2 -28 -16 -4 -14
-5 6 -4 38 2 45 23 12 38 -26 12 -26 35 0 25 8 -3 14 -1 14 4 0 11 -33 14 -43
3z"/>
<path d="M1370 2343 c0 -29 5 -53 10 -53 6 0 10 6 10 14 0 8 10 16 23 18 14 2
23 11 25 26 5 31 -15 52 -44 50 -22 -2 -24 -7 -24 -55z m57 3 c-10 -25 -37
-19 -37 7 0 13 3 27 7 31 11 11 36 -21 30 -38z"/>
<path d="M1504 2389 c-5 -9 -2 -10 10 -6 10 4 23 4 29 0 7 -4 2 -9 -13 -13
-36 -9 -34 -44 3 -48 27 -3 28 -2 25 35 -2 30 -7 39 -25 41 -11 2 -25 -2 -29
-9z m46 -39 c0 -12 -28 -25 -36 -17 -9 9 6 27 22 27 8 0 14 -5 14 -10z"/>
<path d="M1581 2396 c-1 -5 4 -26 11 -48 10 -33 9 -41 -3 -49 -8 -5 -9 -9 -3
-9 16 0 28 18 48 70 13 37 14 42 1 26 -8 -11 -15 -23 -15 -28 0 -18 -17 -6
-27 20 -6 15 -11 23 -12 18z"/>
<path d="M2540 2361 c0 -23 5 -41 10 -41 6 0 10 15 10 34 0 19 -4 38 -10 41
-6 4 -10 -10 -10 -34z"/>
<path d="M2590 2386 c-6 -8 -10 -25 -8 -38 2 -18 10 -23 33 -25 21 -1 23 0 7
4 -13 2 -26 11 -29 19 -7 19 16 46 34 40 8 -3 11 -1 8 4 -9 14 -31 12 -45 -4z"/>
<path d="M2660 2358 c0 -46 17 -51 22 -6 4 43 26 48 30 6 2 -28 8 -34 30 -36
22 -3 29 2 34 23 9 37 -8 50 -67 50 l-49 0 0 -37z m100 -4 c0 -15 -6 -24 -15
-24 -21 0 -30 27 -15 45 16 19 30 10 30 -21z"/>
<path d="M2862 2391 c-8 -5 -12 -21 -10 -37 2 -23 9 -30 30 -32 22 -3 29 2 34
22 10 41 -21 68 -54 47z m38 -37 c0 -15 -6 -24 -15 -24 -21 0 -30 27 -15 45
16 19 30 10 30 -21z"/>
<path d="M2930 2358 c0 -46 18 -51 22 -5 2 17 8 32 13 32 6 0 11 -15 13 -32 4
-41 22 -44 22 -4 0 33 -13 46 -47 46 -20 1 -23 -4 -23 -37z"/>
<path d="M3902 2391 c-8 -5 -12 -21 -10 -37 2 -23 9 -30 30 -32 22 -3 29 2 34
22 10 41 -21 68 -54 47z m38 -37 c0 -15 -6 -24 -15 -24 -21 0 -30 27 -15 45
16 19 30 10 30 -21z"/>
<path d="M4042 2391 c-8 -5 -12 -21 -10 -37 2 -23 9 -30 30 -32 22 -3 29 2 34
22 10 41 -21 68 -54 47z m38 -37 c0 -15 -6 -24 -15 -24 -21 0 -30 27 -15 45
16 19 30 10 30 -21z"/>
<path d="M4124 2389 c-5 -9 -2 -10 10 -6 10 4 23 4 29 0 7 -4 2 -9 -13 -13
-36 -9 -34 -44 3 -48 27 -3 28 -2 25 35 -2 30 -7 39 -25 41 -11 2 -25 -2 -29
-9z m46 -39 c0 -12 -28 -25 -36 -17 -9 9 6 27 22 27 8 0 14 -5 14 -10z"/>
<path d="M4200 2358 c0 -21 5 -38 10 -38 6 0 10 13 10 30 0 17 7 33 17 39 14
7 12 9 -10 8 -24 -2 -27 -6 -27 -39z"/>
<path d="M4270 2386 c-6 -8 -10 -25 -8 -38 2 -18 10 -23 33 -25 18 -1 22 1 10
4 -34 9 -41 23 -13 23 32 0 44 16 28 35 -16 19 -34 19 -50 1z m35 -6 c3 -5 -1
-10 -10 -10 -9 0 -13 5 -10 10 3 6 8 10 10 10 2 0 7 -4 10 -10z"/>
<path d="M4662 2391 c-8 -5 -12 -21 -10 -37 2 -23 9 -30 30 -32 22 -3 29 2 34
22 10 41 -21 68 -54 47z m38 -37 c0 -15 -6 -24 -15 -24 -21 0 -30 27 -15 45
16 19 30 10 30 -21z"/>
<path d="M4790 2361 c0 -23 5 -41 10 -41 6 0 10 15 10 34 0 19 -4 38 -10 41
-6 4 -10 -10 -10 -34z"/>
<path d="M5140 2358 c0 -21 5 -38 10 -38 6 0 10 13 10 30 0 17 7 33 17 39 14
7 12 9 -10 8 -24 -2 -27 -6 -27 -39z"/>
<path d="M5200 2361 c0 -23 5 -41 10 -41 6 0 10 15 10 34 0 19 -4 38 -10 41
-6 4 -10 -10 -10 -34z"/>
<path d="M5241 2394 c-2 -19 21 -74 30 -74 10 0 42 71 34 78 -2 3 -11 -10 -19
-29 l-14 -34 -15 35 c-9 19 -16 30 -16 24z"/>
<path d="M5330 2386 c-6 -8 -10 -25 -8 -38 2 -18 10 -23 33 -25 18 -1 22 1 10
4 -34 9 -41 23 -13 23 32 0 44 16 28 35 -16 19 -34 19 -50 1z m35 -6 c3 -5 -1
-10 -10 -10 -9 0 -13 5 -10 10 3 6 8 10 10 10 2 0 7 -4 10 -10z"/>
<path d="M5410 2358 c0 -21 5 -38 10 -38 6 0 10 13 10 30 0 17 7 33 17 39 14
7 12 9 -10 8 -24 -2 -27 -6 -27 -39z"/>
<path d="M1367 2180 l362 -5 340 -268 c188 -147 341 -272 341 -278 0 -5 -10
-9 -22 -10 -14 -1 -5 -6 22 -14 38 -11 -52 -13 -610 -17 -360 -2 72 -3 960 -3
888 0 1365 2 1060 5 -374 3 -561 9 -573 16 -16 9 59 54 490 290 l508 279 725
5 c683 5 665 5 -310 5 -569 0 -899 -2 -734 -5 l301 -5 -410 -225 c-647 -354
-610 -335 -597 -310 20 38 3 33 -31 -9 l-32 -41 -194 0 c-106 0 -193 2 -193 5
0 3 9 23 20 45 11 22 20 42 20 46 0 4 -9 -1 -20 -11 -20 -18 -20 -17 -20 243
l0 262 238 3 c130 1 19 2 -248 2 -267 0 -376 -1 -242 -2 l242 -3 0 -262 0
-261 -21 19 c-22 19 -22 19 -14 -6 4 -14 14 -37 22 -52 l14 -28 -135 0 -134 0
-26 45 c-30 51 -41 57 -31 18 6 -26 5 -27 -12 -12 -10 9 -166 132 -348 275
l-330 259 75 6 c41 3 -125 5 -370 5 l-445 -1 362 -5z"/>
<path d="M1144 1355 c0 -121 2 -169 3 -107 2 62 2 161 0 220 -1 59 -3 8 -3
-113z"/>
<path d="M4173 1525 c-7 -8 -13 -18 -13 -24 0 -5 6 -12 13 -14 10 -4 10 -6 0
-6 -17 -1 -16 -19 1 -37 10 -10 38 -14 90 -14 l76 0 0 55 0 55 -77 0 c-55 -1
-82 -5 -90 -15z m157 -40 l0 -45 -72 1 c-40 0 -67 3 -60 6 6 2 12 11 12 19 0
8 -6 14 -12 15 -10 0 -10 2 0 6 6 2 12 11 12 18 0 7 -6 16 -12 18 -7 3 20 6
60 6 l72 1 0 -45z m-133 19 c-3 -3 -12 -4 -19 -1 -8 3 -5 6 6 6 11 1 17 -2 13
-5z m0 -40 c-3 -3 -12 -4 -19 -1 -8 3 -5 6 6 6 11 1 17 -2 13 -5z"/>
<path d="M1690 1317 l0 -58 33 3 c28 3 32 7 32 32 0 18 -7 33 -20 40 -11 6
-25 18 -32 26 -10 12 -12 5 -13 -43z m57 -31 c-10 -25 -37 -19 -37 7 0 13 3
27 7 31 11 11 36 -21 30 -38z"/>
<path d="M2100 1360 c0 -5 5 -10 11 -10 5 0 7 5 4 10 -3 6 -8 10 -11 10 -2 0
-4 -4 -4 -10z"/>
<path d="M2550 1341 c-7 -17 -9 -43 -5 -60 11 -53 20 -42 20 25 0 35 -1 64 -1
64 -1 0 -7 -13 -14 -29z"/>
<path d="M2940 1317 l0 -58 33 3 c28 3 32 7 32 32 0 18 -7 33 -20 40 -11 6
-25 18 -32 26 -10 12 -12 5 -13 -43z m57 -31 c-10 -25 -37 -19 -37 7 0 13 3
27 7 31 11 11 36 -21 30 -38z"/>
<path d="M3440 1360 c0 -5 5 -10 11 -10 5 0 7 5 4 10 -3 6 -8 10 -11 10 -2 0
-4 -4 -4 -10z"/>
<path d="M3610 1360 c0 -5 5 -10 11 -10 5 0 7 5 4 10 -3 6 -8 10 -11 10 -2 0
-4 -4 -4 -10z"/>
<path d="M4101 1341 c9 -24 9 -43 1 -70 -10 -32 -10 -34 3 -17 19 25 19 77 0
102 -13 17 -14 16 -4 -15z"/>
<path d="M1300 1310 c0 -57 20 -69 21 -12 1 36 1 37 11 10 12 -34 21 -35 36
-5 10 21 11 20 11 -10 1 -54 21 -37 21 17 0 55 -23 71 -34 25 -4 -14 -10 -25
-15 -25 -5 0 -12 11 -15 25 -4 14 -13 25 -21 25 -11 0 -15 -13 -15 -50z"/>
<path d="M1500 1311 c0 -28 5 -51 10 -51 6 0 10 9 10 20 0 27 24 25 44 -2 15
-20 16 -20 10 -3 -4 11 -7 34 -8 50 -1 26 -5 30 -33 33 l-33 3 0 -50z m50 24
c0 -8 -7 -15 -15 -15 -8 0 -15 7 -15 15 0 8 7 15 15 15 8 0 15 -7 15 -15z"/>
<path d="M1880 1335 c-6 -14 -14 -36 -20 -50 -5 -14 -6 -25 -1 -25 5 0 11 7
15 15 7 20 42 19 50 -1 4 -9 9 -14 12 -11 8 8 -27 97 -38 97 -4 0 -13 -11 -18
-25z m30 -21 c0 -8 -6 -14 -14 -14 -9 0 -12 7 -9 20 6 22 23 18 23 -6z"/>
<path d="M2212 1313 c2 -39 7 -48 23 -50 11 -2 14 0 8 3 -16 7 -17 64 -2 64 6
0 4 7 -5 15 -23 24 -27 18 -24 -32z"/>
<path d="M2442 1313 c2 -39 7 -48 23 -50 11 -2 14 0 8 3 -16 7 -17 64 -2 64 6
0 4 7 -5 15 -23 24 -27 18 -24 -32z"/>
<path d="M2600 1311 c0 -28 5 -51 10 -51 6 0 10 9 10 20 0 27 24 25 44 -2 15
-20 16 -20 10 -3 -4 11 -7 34 -8 50 -1 26 -5 30 -33 33 l-33 3 0 -50z m50 24
c0 -8 -7 -15 -15 -15 -8 0 -15 7 -15 15 0 8 7 15 15 15 8 0 15 -7 15 -15z"/>
<path d="M3360 1311 c0 -28 5 -51 10 -51 6 0 10 9 10 19 0 13 8 21 23 23 16 2
22 10 22 28 0 21 -5 26 -32 28 l-33 3 0 -50z m48 22 c-5 -25 -28 -28 -28 -4 0
12 6 21 16 21 9 0 14 -7 12 -17z"/>
<path d="M3530 1311 c0 -28 5 -51 10 -51 6 0 10 9 10 19 0 13 8 21 23 23 16 2
22 10 22 28 0 21 -5 26 -32 28 l-33 3 0 -50z m48 22 c-5 -25 -28 -28 -28 -4 0
12 6 21 16 21 9 0 14 -7 12 -17z"/>
<path d="M3860 1351 c0 -4 11 -6 25 -3 17 3 25 0 25 -10 0 -8 -11 -25 -25 -38
-34 -32 -31 -40 13 -39 34 1 35 2 8 8 l-28 6 21 19 c12 11 21 30 21 43 0 19
-5 23 -30 23 -16 0 -30 -4 -30 -9z"/>
<path d="M3950 1350 c0 -27 21 -90 30 -90 5 0 12 16 16 35 7 40 19 38 27 -5 4
-16 11 -30 16 -30 10 0 31 61 31 88 0 24 -17 3 -25 -30 l-7 -33 -10 38 c-12
45 -26 48 -34 7 -7 -32 -24 -41 -24 -12 0 9 -5 24 -10 32 -9 13 -10 13 -10 0z"/>
<path d="M1421 1336 c-1 -5 4 -26 11 -48 10 -33 9 -41 -3 -49 -8 -5 -9 -9 -3
-9 16 0 28 18 48 70 13 37 14 42 1 26 -8 -11 -15 -23 -15 -28 0 -18 -17 -6
-27 20 -6 15 -11 23 -12 18z"/>
<path d="M1612 1331 c-8 -5 -12 -21 -10 -37 2 -23 9 -30 30 -32 22 -3 29 2 34
22 10 41 -21 68 -54 47z m38 -37 c0 -15 -6 -24 -15 -24 -21 0 -30 27 -15 45
16 19 30 10 30 -21z"/>
<path d="M1792 1331 c-8 -5 -12 -21 -10 -37 2 -23 9 -30 30 -32 22 -3 29 2 34
22 10 41 -21 68 -54 47z m38 -37 c0 -15 -6 -24 -15 -24 -21 0 -30 27 -15 45
16 19 30 10 30 -21z"/>
<path d="M1967 1333 c-13 -13 -7 -32 13 -38 27 -8 25 -22 -2 -28 -16 -4 -14
-5 6 -4 38 2 45 23 12 38 -26 12 -26 35 0 25 8 -3 14 -1 14 4 0 11 -33 14 -43
3z"/>
<path d="M2037 1333 c-13 -13 -7 -32 13 -38 27 -8 25 -22 -2 -28 -16 -4 -14
-5 6 -4 38 2 45 23 12 38 -26 12 -26 35 0 25 8 -3 14 -1 14 4 0 11 -33 14 -43
3z"/>
<path d="M2100 1301 c0 -23 5 -41 10 -41 6 0 10 15 10 34 0 19 -4 38 -10 41
-6 4 -10 -10 -10 -34z"/>
<path d="M2147 1333 c-13 -13 -7 -32 13 -38 27 -8 25 -22 -2 -28 -16 -4 -14
-5 6 -4 38 2 45 23 12 38 -26 12 -26 35 0 25 8 -3 14 -1 14 4 0 11 -33 14 -43
3z"/>
<path d="M2274 1329 c-5 -9 -2 -10 10 -6 10 4 23 4 29 0 7 -4 2 -9 -13 -13
-36 -9 -34 -44 3 -48 27 -3 28 -2 25 35 -2 30 -7 39 -25 41 -11 2 -25 -2 -29
-9z m46 -39 c0 -12 -28 -25 -36 -17 -9 9 6 27 22 27 8 0 14 -5 14 -10z"/>
<path d="M2360 1298 c0 -46 18 -51 22 -5 2 17 8 32 13 32 6 0 11 -15 13 -32 4
-41 22 -44 22 -4 0 33 -13 46 -47 46 -20 1 -23 -4 -23 -37z"/>
<path d="M2704 1329 c-5 -9 -2 -10 10 -6 10 4 23 4 29 0 7 -4 2 -9 -13 -13
-36 -9 -34 -44 3 -48 27 -3 28 -2 25 35 -2 30 -7 39 -25 41 -11 2 -25 -2 -29
-9z m46 -39 c0 -12 -28 -25 -36 -17 -9 9 6 27 22 27 8 0 14 -5 14 -10z"/>
<path d="M2787 1333 c-13 -13 -7 -32 13 -38 27 -8 25 -22 -2 -28 -16 -4 -14
-5 6 -4 38 2 45 23 12 38 -26 12 -26 35 0 25 8 -3 14 -1 14 4 0 11 -33 14 -43
3z"/>
<path d="M2850 1283 c0 -29 5 -53 10 -53 6 0 10 6 10 14 0 8 10 16 23 18 14 2
23 11 25 26 5 31 -15 52 -44 50 -22 -2 -24 -7 -24 -55z m57 3 c-10 -25 -37
-19 -37 7 0 13 3 27 7 31 11 11 36 -21 30 -38z"/>
<path d="M3040 1326 c-6 -8 -10 -25 -8 -38 2 -18 10 -23 33 -25 18 -1 22 1 10
4 -34 9 -41 23 -13 23 32 0 44 16 28 35 -16 19 -34 19 -50 1z m35 -6 c3 -5 -1
-10 -10 -10 -9 0 -13 5 -10 10 3 6 8 10 10 10 2 0 7 -4 10 -10z"/>
<path d="M3120 1298 c0 -21 5 -38 10 -38 6 0 10 13 10 30 0 17 7 33 17 39 14
7 12 9 -10 8 -24 -2 -27 -6 -27 -39z"/>
<path d="M3180 1298 c0 -46 17 -51 22 -6 4 47 25 46 39 -2 11 -35 10 -43 -2
-51 -8 -5 -9 -9 -3 -9 16 0 28 18 48 70 13 37 14 42 1 26 -8 -11 -15 -23 -15
-28 0 -19 -18 -6 -24 17 -5 20 -12 24 -36 22 -28 -2 -30 -5 -30 -39z"/>
<path d="M3440 1301 c0 -23 5 -41 10 -41 6 0 10 15 10 34 0 19 -4 38 -10 41
-6 4 -10 -10 -10 -34z"/>
<path d="M3610 1301 c0 -23 5 -41 10 -41 6 0 10 15 10 34 0 19 -4 38 -10 41
-6 4 -10 -10 -10 -34z"/>
<path d="M3660 1326 c-6 -8 -10 -25 -8 -38 2 -18 10 -23 33 -25 21 -1 23 0 7
4 -13 2 -26 11 -29 19 -7 19 16 46 34 40 8 -3 11 -1 8 4 -9 14 -31 12 -45 -4z"/>
<path d="M3742 1331 c-8 -5 -12 -21 -10 -37 2 -23 9 -30 30 -32 22 -3 29 2 34
22 10 41 -21 68 -54 47z m38 -37 c0 -15 -6 -24 -15 -24 -21 0 -30 27 -15 45
16 19 30 10 30 -21z"/>
<path d="M1162 1125 c2 -3 363 -5 801 -5 l797 0 0 -262 0 -261 -21 19 c-22 19
-22 19 -14 -6 4 -14 14 -37 21 -52 l14 -28 -182 -3 c-101 -1 -19 -2 182 -2
201 0 285 1 188 2 -98 2 -178 6 -178 9 0 2 9 22 20 44 25 49 25 58 0 35 -20
-18 -20 -17 -20 243 l0 262 177 0 177 0 355 -211 c196 -117 407 -242 470 -280
l114 -68 -34 -9 -34 -10 30 -3 c17 -2 -96 -6 -250 -9 -154 -3 165 -5 710 -5
553 0 692 1 314 2 l-676 3 -32 45 c-35 49 -46 56 -36 25 3 -11 4 -20 0 -20 -3
0 -162 93 -353 206 -191 114 -393 234 -450 268 l-102 61 607 5 c389 3 31 6
-996 8 -882 1 -1602 0 -1599 -3z"/>
<path d="M1918 842 c-240 -147 -435 -268 -433 -270 4 -4 860 512 880 530 35
31 -62 -25 -447 -260z"/>
<path d="M1445 575 l-27 -45 -661 -3 c-375 -1 -244 -2 303 -2 531 0 841 2 690
5 -151 3 -261 7 -245 9 23 3 25 4 10 8 -32 8 -43 21 -37 48 7 37 -4 31 -33
-20z"/>
<path d="M94 295 c0 -121 2 -169 3 -107 2 62 2 161 0 220 -1 59 -3 8 -3 -113z"/>
<path d="M2384 300 c0 -118 2 -167 3 -108 2 60 2 156 0 215 -1 60 -3 11 -3
-107z"/>
<path d="M3134 295 c0 -121 2 -169 3 -107 2 62 2 161 0 220 -1 59 -3 8 -3
-113z"/>
<path d="M3484 300 c0 -118 2 -167 3 -108 2 60 2 156 0 215 -1 60 -3 11 -3
-107z"/>
<path d="M5474 295 c0 -121 2 -169 3 -107 2 62 2 161 0 220 -1 59 -3 8 -3
-113z"/>
<path d="M1823 465 c-7 -8 -13 -18 -13 -24 0 -5 6 -12 13 -14 10 -4 10 -6 0
-6 -17 -1 -16 -19 1 -37 10 -10 38 -14 90 -14 l76 0 0 55 0 55 -77 0 c-55 -1
-82 -5 -90 -15z m157 -40 l0 -45 -72 1 c-40 0 -67 3 -60 6 6 2 12 11 12 19 0
8 -6 14 -12 15 -10 0 -10 2 0 6 6 2 12 11 12 18 0 7 -6 16 -12 18 -7 3 20 6
60 6 l72 1 0 -45z m-133 19 c-3 -3 -12 -4 -19 -1 -8 3 -5 6 6 6 11 1 17 -2 13
-5z m0 -40 c-3 -3 -12 -4 -19 -1 -8 3 -5 6 6 6 11 1 17 -2 13 -5z"/>
<path d="M2923 465 c-7 -8 -13 -18 -13 -24 0 -5 6 -12 13 -14 10 -4 10 -6 0
-6 -17 -1 -16 -19 1 -37 10 -10 38 -14 90 -14 l76 0 0 55 0 55 -77 0 c-55 -1
-82 -5 -90 -15z m157 -40 l0 -45 -72 1 c-40 0 -67 3 -60 6 6 2 12 11 12 19 0
8 -6 14 -12 15 -10 0 -10 2 0 6 6 2 12 11 12 18 0 7 -6 16 -12 18 -7 3 20 6
60 6 l72 1 0 -45z m-133 19 c-3 -3 -12 -4 -19 -1 -8 3 -5 6 6 6 11 1 17 -2 13
-5z m0 -40 c-3 -3 -12 -4 -19 -1 -8 3 -5 6 6 6 11 1 17 -2 13 -5z"/>
<path d="M5263 465 c-7 -8 -13 -18 -13 -24 0 -5 6 -12 13 -14 10 -4 10 -6 0
-6 -17 -1 -16 -19 1 -37 10 -10 38 -14 90 -14 l76 0 0 55 0 55 -77 0 c-55 -1
-82 -5 -90 -15z m157 -40 l0 -45 -72 1 c-40 0 -67 3 -60 6 6 2 12 11 12 19 0
8 -6 14 -12 15 -10 0 -10 2 0 6 6 2 12 11 12 18 0 7 -6 16 -12 18 -7 3 20 6
60 6 l72 1 0 -45z m-133 19 c-3 -3 -12 -4 -19 -1 -8 3 -5 6 6 6 11 1 17 -2 13
-5z m0 -40 c-3 -3 -12 -4 -19 -1 -8 3 -5 6 6 6 11 1 17 -2 13 -5z"/>
<path d="M630 256 c0 -31 5 -56 10 -56 6 0 10 22 10 49 0 28 -4 53 -10 56 -6
4 -10 -15 -10 -49z"/>
<path d="M810 256 c0 -31 5 -56 10 -56 6 0 10 22 10 49 0 28 -4 53 -10 56 -6
4 -10 -15 -10 -49z"/>
<path d="M1310 257 c0 -59 19 -81 21 -24 2 44 -1 60 -12 72 -5 5 -9 -13 -9
-48z"/>
<path d="M1580 300 c0 -5 5 -10 11 -10 5 0 7 5 4 10 -3 6 -8 10 -11 10 -2 0
-4 -4 -4 -10z"/>
<path d="M1750 300 c0 -5 5 -10 11 -10 5 0 7 5 4 10 -3 6 -8 10 -11 10 -2 0
-4 -4 -4 -10z"/>
<path d="M2820 298 c0 -4 9 -8 20 -8 11 0 20 4 20 8 0 4 -9 8 -20 8 -11 0 -20
-4 -20 -8z"/>
<path d="M4130 300 c0 -5 5 -10 11 -10 5 0 7 5 4 10 -3 6 -8 10 -11 10 -2 0
-4 -4 -4 -10z"/>
<path d="M4740 300 c0 -5 5 -10 11 -10 5 0 7 5 4 10 -3 6 -8 10 -11 10 -2 0
-4 -4 -4 -10z"/>
<path d="M4920 300 c0 -5 5 -10 11 -10 5 0 7 5 4 10 -3 6 -8 10 -11 10 -2 0
-4 -4 -4 -10z"/>
<path d="M250 250 c0 -57 20 -69 21 -12 1 36 1 37 11 10 12 -34 21 -35 36 -5
10 21 11 20 11 -10 1 -54 21 -37 21 17 0 55 -23 71 -34 25 -4 -14 -10 -25 -15
-25 -5 0 -12 11 -15 25 -4 14 -13 25 -21 25 -11 0 -15 -13 -15 -50z"/>
<path d="M510 287 c0 -8 -10 -13 -22 -13 -20 1 -23 -4 -23 -34 0 -32 3 -35 33
-38 l32 -3 0 50 c0 28 -4 51 -10 51 -5 0 -10 -6 -10 -13z m-5 -47 c0 -13 -6
-25 -12 -27 -16 -6 -27 21 -19 43 9 23 31 11 31 -16z"/>
<path d="M720 251 c0 -49 1 -51 29 -51 32 0 57 23 45 42 -5 7 -8 22 -9 33 0
15 -8 21 -32 23 l-33 3 0 -50z m53 24 c1 -5 -6 -11 -15 -13 -11 -2 -18 3 -18
13 0 17 30 18 33 0z m2 -45 c0 -8 -8 -16 -17 -18 -13 -2 -18 3 -18 18 0 15 5
20 18 18 9 -2 17 -10 17 -18z"/>
<path d="M1032 253 c2 -39 7 -48 23 -50 11 -2 14 0 8 3 -16 7 -17 64 -2 64 6
0 4 7 -5 15 -23 24 -27 18 -24 -32z"/>
<path d="M1252 253 c2 -39 7 -48 23 -50 11 -2 14 0 8 3 -16 7 -17 64 -2 64 6
0 4 7 -5 15 -23 24 -27 18 -24 -32z"/>
<path d="M1411 259 c-7 -23 -15 -48 -18 -58 -4 -9 -2 -13 3 -8 5 5 16 29 25
55 l16 46 11 -47 c14 -56 29 -60 38 -12 7 40 19 38 27 -5 4 -16 11 -30 16 -30
10 0 31 61 31 88 0 24 -17 3 -25 -30 l-7 -33 -10 38 c-12 45 -26 48 -34 7 -4
-16 -10 -30 -14 -30 -4 0 -10 14 -13 30 -9 43 -32 37 -46 -11z"/>
<path d="M1670 250 c0 -27 5 -50 10 -50 6 0 10 11 10 24 0 18 7 26 23 29 l22
4 -22 2 c-13 0 -23 7 -23 15 0 8 10 17 23 19 16 3 13 5 -10 6 l-33 1 0 -50z"/>
<path d="M2550 251 c0 -49 1 -51 29 -51 32 0 57 23 45 42 -5 7 -8 22 -9 33 0
15 -8 21 -32 23 l-33 3 0 -50z m53 24 c1 -5 -6 -11 -15 -13 -11 -2 -18 3 -18
13 0 17 30 18 33 0z m2 -45 c0 -8 -8 -16 -17 -18 -13 -2 -18 3 -18 18 0 15 5
20 18 18 9 -2 17 -10 17 -18z"/>
<path d="M3657 293 c-15 -14 -6 -33 23 -48 35 -18 30 -39 -6 -32 -13 2 -24 0
-24 -5 0 -5 15 -8 33 -6 24 2 33 8 35 24 2 17 -5 24 -29 33 -35 12 -31 26 11
34 22 4 21 4 -6 6 -17 0 -34 -2 -37 -6z"/>
<path d="M4260 287 c0 -8 -10 -13 -22 -13 -20 1 -23 -4 -23 -34 0 -32 3 -35
33 -38 l32 -3 0 50 c0 28 -4 51 -10 51 -5 0 -10 -6 -10 -13z m-5 -47 c0 -27
-22 -39 -31 -16 -8 22 3 49 19 43 6 -2 12 -14 12 -27z"/>
<path d="M4962 253 c2 -39 7 -48 23 -50 11 -2 14 0 8 3 -16 7 -17 64 -2 64 6
0 4 7 -5 15 -23 24 -27 18 -24 -32z"/>
<path d="M5102 253 c2 -39 7 -48 23 -50 11 -2 14 0 8 3 -16 7 -17 64 -2 64 6
0 4 7 -5 15 -23 24 -27 18 -24 -32z"/>
<path d="M382 271 c-8 -5 -12 -21 -10 -37 2 -23 9 -30 30 -32 22 -3 29 2 34
22 10 41 -21 68 -54 47z m38 -37 c0 -15 -6 -24 -15 -24 -21 0 -30 27 -15 45
16 19 30 10 30 -21z"/>
<path d="M552 244 c3 -36 6 -39 36 -42 31 -3 32 -2 32 32 0 19 -4 38 -10 41
-6 4 -10 -8 -10 -29 0 -25 -4 -36 -15 -36 -10 0 -15 10 -15 29 0 17 -5 33 -11
36 -7 5 -9 -6 -7 -31z"/>
<path d="M852 244 c3 -36 6 -39 36 -42 31 -3 32 -2 32 32 0 19 -4 38 -10 41
-6 4 -10 -8 -10 -29 0 -25 -4 -36 -15 -36 -10 0 -15 10 -15 29 0 17 -5 33 -11
36 -7 5 -9 -6 -7 -31z"/>
<path d="M950 266 c-6 -8 -10 -25 -8 -38 2 -18 10 -23 33 -25 18 -1 22 1 10 4
-34 9 -41 23 -13 23 32 0 44 16 28 35 -16 19 -34 19 -50 1z m35 -6 c3 -5 -1
-10 -10 -10 -9 0 -13 5 -10 10 3 6 8 10 10 10 2 0 7 -4 10 -10z"/>
<path d="M1092 271 c-8 -5 -12 -21 -10 -37 2 -23 9 -30 30 -32 22 -3 29 2 34
22 10 41 -21 68 -54 47z m38 -37 c0 -15 -6 -24 -15 -24 -21 0 -30 27 -15 45
16 19 30 10 30 -21z"/>
<path d="M1182 271 c-8 -5 -12 -21 -10 -37 2 -23 9 -30 30 -32 22 -3 29 2 34
22 10 41 -21 68 -54 47z m38 -37 c0 -15 -6 -24 -15 -24 -21 0 -30 27 -15 45
16 19 30 10 30 -21z"/>
<path d="M1348 268 c7 -7 12 -25 12 -40 0 -15 5 -28 10 -28 6 0 10 13 10 28 0
28 -16 52 -34 52 -6 0 -5 -5 2 -12z"/>
<path d="M1580 241 c0 -23 5 -41 10 -41 6 0 10 15 10 34 0 19 -4 38 -10 41 -6
4 -10 -10 -10 -34z"/>
<path d="M1750 241 c0 -23 5 -41 10 -41 6 0 10 15 10 34 0 19 -4 38 -10 41 -6
4 -10 -10 -10 -34z"/>
<path d="M2652 271 c-8 -5 -12 -21 -10 -37 2 -23 9 -30 30 -32 22 -3 29 2 34
22 10 41 -21 68 -54 47z m38 -37 c0 -15 -6 -24 -15 -24 -21 0 -30 27 -15 45
16 19 30 10 30 -21z"/>
<path d="M2730 274 c0 -6 5 -15 12 -22 9 -9 9 -15 0 -24 -18 -18 -15 -33 3
-18 12 10 19 10 27 2 20 -20 32 -13 13 8 -15 16 -16 22 -5 35 7 9 10 18 7 22
-4 3 -9 -2 -13 -11 -6 -16 -8 -16 -25 0 -11 9 -19 13 -19 8z"/>
<path d="M2814 269 c-5 -9 -2 -10 10 -6 10 4 23 4 29 0 7 -4 2 -9 -13 -13 -36
-9 -34 -44 3 -48 27 -3 28 -2 25 35 -2 30 -7 39 -25 41 -11 2 -25 -2 -29 -9z
m46 -39 c0 -12 -28 -25 -36 -17 -9 9 6 27 22 27 8 0 14 -5 14 -10z"/>
<path d="M3740 266 c-6 -8 -10 -25 -8 -38 2 -18 10 -23 33 -25 18 -1 22 1 10
4 -34 9 -41 23 -13 23 32 0 44 16 28 35 -16 19 -34 19 -50 1z m35 -6 c3 -5 -1
-10 -10 -10 -9 0 -13 5 -10 10 3 6 8 10 10 10 2 0 7 -4 10 -10z"/>
<path d="M3820 238 c0 -46 18 -51 22 -5 2 17 8 32 13 32 6 0 11 -15 13 -32 4
-41 22 -44 22 -4 0 33 -13 46 -47 46 -20 1 -23 -4 -23 -37z"/>
<path d="M3928 273 l22 -4 -20 -29 c-27 -37 -26 -40 13 -39 23 1 26 3 10 6
-28 5 -29 15 -3 38 28 26 25 35 -12 34 -24 -1 -27 -3 -10 -6z"/>
<path d="M3992 271 c-8 -5 -12 -21 -10 -37 2 -23 9 -30 30 -32 22 -3 29 2 34
22 10 41 -21 68 -54 47z m38 -37 c0 -15 -6 -24 -15 -24 -21 0 -30 27 -15 45
16 19 30 10 30 -21z"/>
<path d="M4070 238 c0 -21 5 -38 10 -38 6 0 10 13 10 30 0 17 7 33 17 39 14 7
12 9 -10 8 -24 -2 -27 -6 -27 -39z"/>
<path d="M4130 241 c0 -23 5 -41 10 -41 6 0 10 15 10 34 0 19 -4 38 -10 41 -6
4 -10 -10 -10 -34z"/>
<path d="M4310 266 c-6 -8 -10 -25 -8 -38 2 -18 10 -23 33 -25 18 -1 22 1 10
4 -34 9 -41 23 -13 23 32 0 44 16 28 35 -16 19 -34 19 -50 1z m35 -6 c3 -5 -1
-10 -10 -10 -9 0 -13 5 -10 10 3 6 8 10 10 10 2 0 7 -4 10 -10z"/>
<path d="M4430 223 c0 -29 5 -53 10 -53 6 0 10 6 10 14 0 8 10 16 23 18 14 2
23 11 25 26 5 31 -15 52 -44 50 -22 -2 -24 -7 -24 -55z m57 3 c-10 -25 -37
-19 -37 7 0 13 3 27 7 31 11 11 36 -21 30 -38z"/>
<path d="M4520 238 c0 -46 17 -51 22 -6 4 43 26 48 30 6 2 -28 8 -34 30 -36
22 -3 29 2 34 23 9 37 -8 50 -67 50 l-49 0 0 -37z m100 -4 c0 -15 -6 -24 -15
-24 -21 0 -30 27 -15 45 16 19 30 10 30 -21z"/>
<path d="M4660 274 c0 -6 5 -15 12 -22 9 -9 9 -15 0 -24 -18 -18 -15 -33 3
-18 12 10 19 10 27 2 20 -20 32 -13 13 8 -15 16 -16 22 -5 35 7 9 10 18 7 22
-4 3 -9 -2 -13 -11 -6 -16 -8 -16 -25 0 -11 9 -19 13 -19 8z"/>
<path d="M4740 241 c0 -23 5 -41 10 -41 6 0 10 15 10 34 0 19 -4 38 -10 41 -6
4 -10 -10 -10 -34z"/>
<path d="M4780 238 c0 -46 18 -51 22 -5 2 17 8 32 13 32 6 0 11 -15 13 -32 2
-18 7 -33 12 -33 5 0 10 15 12 33 2 17 8 32 13 32 6 0 11 -15 13 -32 4 -37 22
-45 22 -10 0 40 -16 52 -70 52 l-50 0 0 -37z"/>
<path d="M4920 241 c0 -23 5 -41 10 -41 6 0 10 15 10 34 0 19 -4 38 -10 41 -6
4 -10 -10 -10 -34z"/>
<path d="M5014 269 c-5 -9 -2 -10 10 -6 10 4 23 4 29 0 7 -4 2 -9 -13 -13 -36
-9 -34 -44 3 -48 27 -3 28 -2 25 35 -2 30 -7 39 -25 41 -11 2 -25 -2 -29 -9z
m46 -39 c0 -12 -28 -25 -36 -17 -9 9 6 27 22 27 8 0 14 -5 14 -10z"/>
<path d="M5160 266 c-6 -8 -10 -25 -8 -38 2 -18 10 -23 33 -25 18 -1 22 1 10
4 -34 9 -41 23 -13 23 32 0 44 16 28 35 -16 19 -34 19 -50 1z m35 -6 c3 -5 -1
-10 -10 -10 -9 0 -13 5 -10 10 3 6 8 10 10 10 2 0 7 -4 10 -10z"/>
<path d="M1628 233 c7 -3 16 -2 19 1 4 3 -2 6 -13 5 -11 0 -14 -3 -6 -6z"/>
<path d="M582 63 c263 -2 693 -2 955 0 263 1 48 2 -477 2 -525 0 -740 -1 -478
-2z"/>
<path d="M2588 63 c101 -2 263 -2 360 0 97 1 15 2 -183 2 -198 0 -278 -1 -177
-2z"/>
<path d="M3992 63 c267 -2 708 -2 980 0 271 1 52 2 -487 2 -539 0 -761 -1
-493 -2z"/>
</g>
</svg>
